<svg xmlns="http://www.w3.org/2000/svg" width="23.504" height="30.252" viewBox="0 0 23.504 30.252">
  <path id="ios-business" d="M10.266,5.625H25.735a1.266,1.266,0,1,0,0-2.532H10.266a1.266,1.266,0,0,0,0,2.532ZM27.984,7.031H8.016a1.27,1.27,0,0,0-.141,2.532V30.657a1.693,1.693,0,0,0,1.688,1.688h6.188a.565.565,0,0,0,.563-.563V28.969a.565.565,0,0,1,.563-.563h2.25a.565.565,0,0,1,.563.563v2.813a.565.565,0,0,0,.563.563h6.188a1.693,1.693,0,0,0,1.688-1.688V9.563a1.27,1.27,0,0,0-.141-2.532ZM13.5,25.594a.565.565,0,0,1-.563.563H11.812a.565.565,0,0,1-.563-.563V24.469a.565.565,0,0,1,.563-.563h1.125a.565.565,0,0,1,.563.563Zm0-4.5a.565.565,0,0,1-.563.563H11.812a.565.565,0,0,1-.563-.563V19.969a.565.565,0,0,1,.563-.563h1.125a.565.565,0,0,1,.563.563Zm0-4.5a.565.565,0,0,1-.563.563H11.812a.565.565,0,0,1-.563-.563V15.469a.565.565,0,0,1,.563-.563h1.125a.565.565,0,0,1,.563.563Zm0-4.5a.565.565,0,0,1-.563.563H11.812a.565.565,0,0,1-.563-.563V10.969a.565.565,0,0,1,.563-.563h1.125a.565.565,0,0,1,.563.563Zm5.625,13.5a.565.565,0,0,1-.563.563H17.437a.565.565,0,0,1-.563-.563V24.469a.565.565,0,0,1,.563-.563h1.125a.565.565,0,0,1,.563.563Zm0-4.5a.565.565,0,0,1-.563.563H17.437a.565.565,0,0,1-.563-.563V19.969a.565.565,0,0,1,.563-.563h1.125a.565.565,0,0,1,.563.563Zm0-4.5a.565.565,0,0,1-.563.563H17.437a.565.565,0,0,1-.563-.563V15.469a.565.565,0,0,1,.563-.563h1.125a.565.565,0,0,1,.563.563Zm0-4.5a.565.565,0,0,1-.563.563H17.437a.565.565,0,0,1-.563-.563V10.969a.565.565,0,0,1,.563-.563h1.125a.565.565,0,0,1,.563.563Zm5.625,13.5a.565.565,0,0,1-.563.563H23.062a.565.565,0,0,1-.563-.563V24.469a.565.565,0,0,1,.563-.563h1.125a.565.565,0,0,1,.563.563Zm0-4.5a.565.565,0,0,1-.563.563H23.062a.565.565,0,0,1-.563-.563V19.969a.565.565,0,0,1,.563-.563h1.125a.565.565,0,0,1,.563.563Zm0-4.5a.565.565,0,0,1-.563.563H23.062a.565.565,0,0,1-.563-.563V15.469a.565.565,0,0,1,.563-.563h1.125a.565.565,0,0,1,.563.563Zm0-4.5a.565.565,0,0,1-.563.563H23.062a.565.565,0,0,1-.563-.563V10.969a.565.565,0,0,1,.563-.563h1.125a.565.565,0,0,1,.563.563Z" transform="translate(-6.25 -2.593)" fill="none" stroke="#707070" stroke-width="1"/>
</svg>
