<svg xmlns="http://www.w3.org/2000/svg" width="32.063" height="31.993" viewBox="0 0 32.063 31.993">
  <g id="Icon-Calendar" transform="translate(0.5 0.5)">
    <path id="Fill-133" d="M7.83-436.215H-16.908A3.12,3.12,0,0,1-20-439.308v-22.7a2.865,2.865,0,0,1,2.6-3.092h1.546v2.038H-17.4c-.211,0-.492.422-.492,1.054v22.7a1.081,1.081,0,0,0,1.054,1.054H7.9a1.081,1.081,0,0,0,1.054-1.054v-22.7c0-.632-.351-1.054-.492-1.054H6.917V-465.1H8.463a2.913,2.913,0,0,1,2.6,3.092v22.7a3.345,3.345,0,0,1-3.233,3.092" transform="translate(20 467.208)" fill="none" stroke="#707070" stroke-width="1"/>
    <path id="Fill-134" d="M-10.146-461.845A1.081,1.081,0,0,1-11.2-462.9v-4.146a1.081,1.081,0,0,1,1.054-1.054,1.081,1.081,0,0,1,1.054,1.054v4.146a1.133,1.133,0,0,1-1.054,1.054" transform="translate(17.385 468.1)" fill="none" stroke="#707070" stroke-width="1"/>
    <path id="Fill-135" d="M13.254-461.845A1.081,1.081,0,0,1,12.2-462.9v-4.146a1.081,1.081,0,0,1,1.054-1.054,1.081,1.081,0,0,1,1.054,1.054v4.146a1.081,1.081,0,0,1-1.054,1.054" transform="translate(10.43 468.1)" fill="none" stroke="#707070" stroke-width="1"/>
    <path id="Fill-136" d="M-5.3-465.1H4.961v2.108H-5.3Z" transform="translate(15.631 467.208)" fill="none" stroke="#707070" stroke-width="1"/>
    <path id="Fill-137" d="M-17.1-456.3H9.747v2.108H-17.1Z" transform="translate(19.138 464.593)" fill="none" stroke="#707070" stroke-width="1"/>
    <path id="Fill-138" d="M15.2-450.4h2.038v2.038H15.2Z" transform="translate(9.538 462.839)" fill="none" stroke="#707070" stroke-width="1"/>
    <path id="Fill-139" d="M9.3-450.4h2.108v2.038H9.3Z" transform="translate(11.292 462.839)" fill="none" stroke="#707070" stroke-width="1"/>
    <path id="Fill-140" d="M3.5-450.4H5.538v2.038H3.5Z" transform="translate(13.016 462.839)" fill="none" stroke="#707070" stroke-width="1"/>
    <path id="Fill-141" d="M-2.4-450.4H-.362v2.038H-2.4Z" transform="translate(14.769 462.839)" fill="none" stroke="#707070" stroke-width="1"/>
    <path id="Fill-142" d="M-8.3-450.4h2.108v2.038H-8.3Z" transform="translate(16.523 462.839)" fill="none" stroke="#707070" stroke-width="1"/>
    <path id="Fill-143" d="M15.2-444.5h2.038v2.038H15.2Z" transform="translate(9.538 461.086)" fill="none" stroke="#707070" stroke-width="1"/>
    <path id="Fill-144" d="M9.3-444.5h2.108v2.038H9.3Z" transform="translate(11.292 461.086)" fill="none" stroke="#707070" stroke-width="1"/>
    <path id="Fill-145" d="M3.5-444.5H5.538v2.038H3.5Z" transform="translate(13.016 461.086)" fill="none" stroke="#707070" stroke-width="1"/>
    <path id="Fill-146" d="M-2.4-444.5H-.362v2.038H-2.4Z" transform="translate(14.769 461.086)" fill="none" stroke="#707070" stroke-width="1"/>
    <path id="Fill-147" d="M-8.3-444.5h2.108v2.038H-8.3Z" transform="translate(16.523 461.086)" fill="none" stroke="#707070" stroke-width="1"/>
    <path id="Fill-148" d="M-14.1-444.5h2.038v2.038H-14.1Z" transform="translate(18.246 461.086)" fill="none" stroke="#707070" stroke-width="1"/>
    <path id="Fill-149" d="M15.2-438.7h2.038v2.108H15.2Z" transform="translate(9.538 459.362)" fill="none" stroke="#707070" stroke-width="1"/>
    <path id="Fill-150" d="M9.3-438.7h2.108v2.108H9.3Z" transform="translate(11.292 459.362)" fill="none" stroke="#707070" stroke-width="1"/>
    <path id="Fill-151" d="M3.5-438.7H5.538v2.108H3.5Z" transform="translate(13.016 459.362)" fill="none" stroke="#707070" stroke-width="1"/>
    <path id="Fill-152" d="M-2.4-438.7H-.362v2.108H-2.4Z" transform="translate(14.769 459.362)" fill="none" stroke="#707070" stroke-width="1"/>
    <path id="Fill-153" d="M-8.3-438.7h2.108v2.108H-8.3Z" transform="translate(16.523 459.362)" fill="none" stroke="#707070" stroke-width="1"/>
    <path id="Fill-154" d="M-14.1-438.7h2.038v2.108H-14.1Z" transform="translate(18.246 459.362)" fill="none" stroke="#707070" stroke-width="1"/>
    <path id="Fill-155" d="M9.3-432.8h2.108v2.038H9.3Z" transform="translate(11.292 457.608)" fill="none" stroke="#707070" stroke-width="1"/>
    <path id="Fill-156" d="M3.5-432.8H5.538v2.038H3.5Z" transform="translate(13.016 457.608)" fill="none" stroke="#707070" stroke-width="1"/>
    <path id="Fill-157" d="M-2.4-432.8H-.362v2.038H-2.4Z" transform="translate(14.769 457.608)" fill="none" stroke="#707070" stroke-width="1"/>
    <path id="Fill-158" d="M-8.3-432.8h2.108v2.038H-8.3Z" transform="translate(16.523 457.608)" fill="none" stroke="#707070" stroke-width="1"/>
    <path id="Fill-159" d="M-14.1-432.8h2.038v2.038H-14.1Z" transform="translate(18.246 457.608)" fill="none" stroke="#707070" stroke-width="1"/>
  </g>
</svg>
