<svg xmlns="http://www.w3.org/2000/svg" width="36.007" height="36.007" viewBox="0 0 36.007 36.007">
  <path id="departamento" d="M32.819,22.426a2.188,2.188,0,0,0,0-4.376H28.99a2.192,2.192,0,0,0-2.117,1.641H18.05V15.862H34.46a.547.547,0,0,0,0-1.094h-9.3V4.923a1.094,1.094,0,0,0-1.094-1.094H22.7v10.94H21.606V1.094A1.094,1.094,0,0,0,20.512,0H16.136a1.094,1.094,0,0,0-1.094,1.094V6.017h1.094V1.094h4.376V14.769H18.6V8.2A1.094,1.094,0,0,0,17.5,7.111H10.94A1.094,1.094,0,0,0,9.846,8.2v6.564H.547a.547.547,0,0,0,0,1.094H16.956v3.829H8.134A2.192,2.192,0,0,0,6.017,18.05H2.188a2.188,2.188,0,0,0,0,4.376H3.282v3.829H2.188a2.188,2.188,0,0,0,0,4.376H6.017A2.192,2.192,0,0,0,8.134,28.99h3.353v1.641H10.119a2.188,2.188,0,1,0,0,4.376h3.829a2.188,2.188,0,0,0,0-4.376H12.581V28.99h9.846v1.641H21.059a2.188,2.188,0,0,0,0,4.376h3.829a2.188,2.188,0,0,0,0-4.376H23.52V28.99h3.353a2.192,2.192,0,0,0,2.117,1.641h3.829a2.188,2.188,0,0,0,0-4.376H31.451V22.426Zm-2.461,3.829H28.99A2.192,2.192,0,0,0,26.873,27.9H8.134a2.192,2.192,0,0,0-2.117-1.641H4.376V22.426H6.017a2.192,2.192,0,0,0,2.117-1.641h18.74a2.192,2.192,0,0,0,2.117,1.641h1.367Z" transform="translate(0.5 0.5)" fill="none" stroke="#707070" stroke-width="1"/>
</svg>
