<svg id="Employees" xmlns="http://www.w3.org/2000/svg" width="37.453" height="22.561" viewBox="0 0 37.453 22.561">
  <path id="Caminho_69" data-name="Caminho 69" d="M3.2,26.087a.585.585,0,0,0,.585-.585V24.191A2.611,2.611,0,0,0,3.1,22.426l-.424-.463a.585.585,0,1,0-.864.789l.424.463a1.45,1.45,0,0,1,.379.976V25.5a.583.583,0,0,0,.584.585Z" transform="translate(0.281 -3.526)" fill="#5e5e5e"/>
  <path id="Caminho_70" data-name="Caminho 70" d="M.585,28.742a.585.585,0,0,0,.585-.585V24.512a1.762,1.762,0,0,1,1.14-1.643l1.168-.439a4.666,4.666,0,0,0,7.087,0l1,.376a3.312,3.312,0,0,0-1.033,2.4v2.952a.585.585,0,0,0,1.17,0V25.2a2.162,2.162,0,0,1,1.024-1.846l2.6-1.622a4.622,4.622,0,0,0,6.79,0l2.6,1.621A2.167,2.167,0,0,1,25.749,25.2v2.952a.585.585,0,0,0,1.17,0V25.2a3.308,3.308,0,0,0-1.035-2.4l1-.376a4.666,4.666,0,0,0,7.087,0l1.169.439a1.759,1.759,0,0,1,1.14,1.642v3.645a.585.585,0,0,0,1.17,0V24.512a2.939,2.939,0,0,0-1.9-2.74l-2.783-1.044V19.38a3.491,3.491,0,0,0,1.169-2.6V15.7a.563.563,0,0,0,.133-.248l.545-2.53a2,2,0,0,0-1.639-2.331l-3.336-.556a1.966,1.966,0,0,0-2.236,1.478,1.732,1.732,0,0,0-1.158,2.041l.528,1.928a.57.57,0,0,0,.138.228V16.78a3.491,3.491,0,0,0,1.172,2.6v1.346L25.309,21.77a2.836,2.836,0,0,0-.476.229c-.012.007-.019.019-.03.027l-.6-.376a1.96,1.96,0,0,0,1.1-2.086,33.836,33.836,0,0,1-.426-5.341V12.286a6.1,6.1,0,1,0-12.21,0v1.939a33.9,33.9,0,0,1-.426,5.341,1.94,1.94,0,0,0,1.056,2.06l-.646.4c-.012-.008-.019-.021-.032-.029a2.857,2.857,0,0,0-.471-.227L9.363,20.728V19.38a3.491,3.491,0,0,0,1.169-2.6V15.7a.563.563,0,0,0,.133-.248l.545-2.53A2,2,0,0,0,9.573,10.59l-3.335-.555a1.973,1.973,0,0,0-1.6.44A1.945,1.945,0,0,0,4,11.513a1.732,1.732,0,0,0-1.158,2.041l.528,1.928a.57.57,0,0,0,.138.228v1.071a3.491,3.491,0,0,0,1.172,2.6v1.346L1.9,21.771A2.941,2.941,0,0,0,0,24.512v3.645A.585.585,0,0,0,.585,28.742ZM27.5,12.81a.557.557,0,0,1,.435-.208.618.618,0,0,0,.585-.623.8.8,0,0,1,.932-.79l3.336.556a.83.83,0,0,1,.682.948l-.283,1.314L33,13.772a.585.585,0,0,0-.455-.219H28.3a.585.585,0,0,0-.457.219l-.238.3-.218-.791a.562.562,0,0,1,.114-.467Zm.588,2.528.492-.613h3.683l.507.629v1.43a2.333,2.333,0,0,1-1.6,2.21L31.148,19A2.32,2.32,0,0,1,29.7,19h0a2.323,2.323,0,0,1-.671-.353l-.011,0a2.33,2.33,0,0,1-.93-1.856V15.338Zm.792,6.344a.585.585,0,0,0,.379-.548V20.089c.067.025.137.034.2.054.11.032.217.067.331.088a3.539,3.539,0,0,0,.472.048c.055,0,.107.016.163.016s.1-.013.146-.015a3.48,3.48,0,0,0,.494-.05c.1-.019.194-.049.291-.076.08-.022.163-.035.241-.063v1.044a.585.585,0,0,0,.379.548l.8.3a3.487,3.487,0,0,1-4.695,0l.8-.3Zm-10.155.37a3.564,3.564,0,0,1-2.388-.943l.625-.39a.574.574,0,0,0,.265-.5h.011V18.965a4.136,4.136,0,0,0,2.969,0v1.262h.012a.573.573,0,0,0,.266.5l.627.391a3.574,3.574,0,0,1-2.386.941Zm-3.243-7.219v-.739a2.415,2.415,0,0,1,1.372-2.155A8.933,8.933,0,0,0,21.391,13.2h0l.277.008a2.055,2.055,0,0,1,.283.028v1.6a3.234,3.234,0,1,1-6.469,0Zm8.661,4.918a.792.792,0,0,1-.785.92h-.735L21.38,19.9V18.318a4.384,4.384,0,0,0,1.743-3.487v-1a2.006,2.006,0,0,1,.563,1.39.58.58,0,0,0,.068.261,34.868,34.868,0,0,0,.391,4.27Zm-10.31-5.526V12.286a4.934,4.934,0,1,1,9.869,0v.5a3.126,3.126,0,0,0-2.017-.751l-.277-.008a7.821,7.821,0,0,1-4.622-1.5.582.582,0,0,0-.817.13.571.571,0,0,0-.088.48,3.6,3.6,0,0,0-1.551,2.719.573.573,0,0,0-.019.091v.882a4.389,4.389,0,0,0,1.756,3.5V19.9l-1.244.775h-.647a.794.794,0,0,1-.784-.921,34.853,34.853,0,0,0,.441-5.526ZM4.093,12.81a.557.557,0,0,1,.435-.208.618.618,0,0,0,.585-.623.8.8,0,0,1,.932-.79l3.336.556a.83.83,0,0,1,.682.948L9.78,14.008l-.19-.235a.582.582,0,0,0-.455-.219H4.891a.585.585,0,0,0-.457.219l-.238.3-.218-.791A.562.562,0,0,1,4.093,12.81Zm.588,2.528.492-.613H8.855l.507.629v1.43a2.332,2.332,0,0,1-.933,1.859h0a2.3,2.3,0,0,1-.664.35L7.741,19a2.325,2.325,0,0,1-1.436,0l-.021-.007a2.3,2.3,0,0,1-.664-.349h0a2.329,2.329,0,0,1-.935-1.861V15.338Zm.792,6.344a.585.585,0,0,0,.379-.548V20.09c.071.026.147.037.22.059.1.029.206.062.313.082a3.4,3.4,0,0,0,.475.048c.054,0,.105.016.16.016s.1-.013.149-.015a3.606,3.606,0,0,0,.49-.049c.105-.02.206-.053.308-.082.075-.021.152-.033.226-.06v1.045a.585.585,0,0,0,.379.548l.8.3a3.486,3.486,0,0,1-4.695,0l.8-.3Z" transform="translate(0 -6.181)" fill="#5e5e5e"/>
  <path id="Caminho_71" data-name="Caminho 71" d="M12.338,26.087a.585.585,0,0,0,.585-.585V23.85a2.809,2.809,0,0,0-.736-1.9.585.585,0,0,0-.864.789,1.642,1.642,0,0,1,.43,1.11V25.5A.585.585,0,0,0,12.338,26.087Zm9.555-.585V23.85a1.632,1.632,0,0,1,.431-1.108.586.586,0,1,0-.865-.79,2.809,2.809,0,0,0-.736,1.9V25.5a.585.585,0,1,0,1.17,0Zm10.757,0V24.191a1.445,1.445,0,0,1,.379-.976l.424-.463a.585.585,0,0,0-.864-.789l-.424.463a2.614,2.614,0,0,0-.685,1.765V25.5a.585.585,0,0,0,1.169,0Z" transform="translate(1.904 -3.526)" fill="#5e5e5e"/>
</svg>
