<svg xmlns="http://www.w3.org/2000/svg" width="44.378" height="60.522" viewBox="0 0 44.378 60.522">
  <g id="Fingerprint" transform="translate(-9.536 -1.001)">
    <path id="Caminho_430" data-name="Caminho 430" d="M21.865,5.593a20.373,20.373,0,0,1,6.278-2.336A.946.946,0,0,0,27.785,1.4a22.3,22.3,0,0,0-6.86,2.552.946.946,0,1,0,.94,1.642Zm9.869-2.7a20.527,20.527,0,0,1,10.37,2.7.946.946,0,1,0,.94-1.642A22.675,22.675,0,0,0,31.709,1a.946.946,0,0,0,.012,1.891ZM52.7,45.169a.947.947,0,0,0-1.262.44,58.846,58.846,0,0,1-4.034,7.07.946.946,0,0,0,1.575,1.047,60.705,60.705,0,0,0,4.161-7.3A.945.945,0,0,0,52.7,45.169ZM51.328,16.516a.946.946,0,1,0,1.531-1.11,25.7,25.7,0,0,0-41.836.235.945.945,0,1,0,1.542,1.093,23.813,23.813,0,0,1,38.763-.219Z" transform="translate(-0.071 0)" fill="#8d297e"/>
    <path id="Caminho_431" data-name="Caminho 431" d="M10.01,28.267A.945.945,0,0,0,11.3,27.92a28.631,28.631,0,0,0,1.91-4.213,19.768,19.768,0,0,1,3.306-5.621.946.946,0,1,0-1.452-1.213,21.66,21.66,0,0,0-3.62,6.159,27.144,27.144,0,0,1-1.782,3.945A.945.945,0,0,0,10.01,28.267Zm7.847-14.184a.945.945,0,1,0,1.212,1.452,20.194,20.194,0,0,1,9.741-4.449.946.946,0,0,0-.3-1.867A22.086,22.086,0,0,0,17.858,14.083Zm14.6-5.131a.946.946,0,1,0-.044,1.891,20.047,20.047,0,0,1,10.246,3.1.945.945,0,1,0,1.01-1.6A21.938,21.938,0,0,0,32.453,8.952Zm19.923,16.9a.947.947,0,0,0,.638-1.176,21.784,21.784,0,0,0-6.214-9.93.946.946,0,0,0-1.278,1.394A19.9,19.9,0,0,1,51.2,25.211.947.947,0,0,0,52.376,25.849ZM48.737,42.812a57.215,57.215,0,0,1-5.54,9.671.946.946,0,0,0,1.542,1.1A59.081,59.081,0,0,0,50.459,43.6a.946.946,0,0,0-1.721-.783ZM38.876,60.775c1.011-1.055,2.631-2.987,3.551-4.137a.946.946,0,0,0-1.478-1.18c-.848,1.061-2.494,3.028-3.436,4.006a.946.946,0,1,0,1.363,1.311Zm14.91-32.229a.946.946,0,0,0-1.88.2,20.819,20.819,0,0,1,.117,2.177,19.95,19.95,0,0,1-1.329,7.192q-.245.639-.493,1.26a.946.946,0,0,0,1.757.7c.169-.422.335-.849.5-1.283a21.84,21.84,0,0,0,1.455-7.872A22.558,22.558,0,0,0,53.786,28.546Z" transform="translate(0 -0.432)" fill="#8d297e"/>
    <path id="Caminho_432" data-name="Caminho 432" d="M31.929,12.918A18.281,18.281,0,0,0,14.957,24.591a23.437,23.437,0,0,1-5.186,8.687.946.946,0,0,0,1.422,1.247,25.254,25.254,0,0,0,5.529-9.256,16.321,16.321,0,0,1,30.47,11.711c-3.06,7.966-9.871,20.016-17.011,23.391a.946.946,0,0,0,.809,1.71C38.732,58.419,45.678,46.2,48.958,37.657A18.238,18.238,0,0,0,31.929,12.918Z" transform="translate(0 -0.647)" fill="#8d297e"/>
    <path id="Caminho_433" data-name="Caminho 433" d="M37.714,50.878A.945.945,0,1,0,36.2,49.743c-2.686,3.582-4.787,6.125-7.724,7.5a.946.946,0,1,0,.805,1.712C32.633,57.384,34.739,54.85,37.714,50.878Zm-26.319-9.51a12.592,12.592,0,0,1,2.324-3.811,32.7,32.7,0,0,0,4.034-5.341.946.946,0,0,0-1.633-.955A30.973,30.973,0,0,1,12.3,36.3a14.441,14.441,0,0,0-2.674,4.383.946.946,0,0,0,1.764.683ZM28.64,17.278a.945.945,0,1,0,.436,1.84,12.516,12.516,0,0,1,10.056,1.937A.946.946,0,0,0,40.215,19.5,14.415,14.415,0,0,0,28.64,17.278Zm-3.756,1.468a14.44,14.44,0,0,0-6.415,7.4c-.253.658-.5,1.265-.736,1.834a.945.945,0,1,0,1.742.735c.247-.585.5-1.211.761-1.892A12.534,12.534,0,0,1,25.812,20.4a.946.946,0,0,0-.927-1.649ZM38.607,48a.945.945,0,0,0,1.307-.284,58.027,58.027,0,0,0,5.177-10.277.946.946,0,1,0-1.758-.7,56.214,56.214,0,0,1-5.009,9.95A.945.945,0,0,0,38.607,48Zm6.539-13.59a.923.923,0,0,0,.15.012.945.945,0,0,0,.933-.8,14.462,14.462,0,0,0-3.056-11.386.946.946,0,1,0-1.465,1.2,12.454,12.454,0,0,1,2.808,7.915,12.693,12.693,0,0,1-.155,1.976A.945.945,0,0,0,45.145,34.414ZM23.138,58.441a.946.946,0,0,0,0,1.891,14.532,14.532,0,0,0,2.289-.183.946.946,0,1,0-.3-1.867A12.618,12.618,0,0,1,23.138,58.441Z" transform="translate(-0.002 -0.863)" fill="#8d297e"/>
    <path id="Caminho_434" data-name="Caminho 434" d="M23.3,56.792a10.7,10.7,0,0,0,8.006-3.6A52.338,52.338,0,0,0,42.107,35.4a10.7,10.7,0,0,0-19.968-7.687,31.232,31.232,0,0,1-6.861,11.3A10.7,10.7,0,0,0,23.3,56.792ZM16.693,40.269A32.829,32.829,0,0,0,23.9,28.388a8.807,8.807,0,0,1,16.437,6.333A50.65,50.65,0,0,1,29.89,51.934a8.807,8.807,0,0,1-13.2-11.665Z" transform="translate(-0.166 -1.079)" fill="#8d297e"/>
    <path id="Caminho_435" data-name="Caminho 435" d="M23.515,53.251h.048a6.944,6.944,0,0,0,5.146-2.339,62.352,62.352,0,0,0,4.028-4.987.946.946,0,1,0-1.537-1.1c-2.76,3.849-4.4,6.263-7.686,6.538a5.075,5.075,0,0,1-4.8-6.646.946.946,0,0,0-1.793-.6,6.966,6.966,0,0,0,6.6,9.139ZM20.638,41.924A34.108,34.108,0,0,0,26.764,32.1a.946.946,0,0,0-1.742-.737A32.414,32.414,0,0,1,19.2,40.7a.946.946,0,1,0,1.439,1.228Zm7.584-13.078a5.017,5.017,0,0,1,5.7-1.85,5.08,5.08,0,0,1,2.5,1.819A.946.946,0,0,0,37.945,27.7a6.954,6.954,0,0,0-11.264.047.946.946,0,0,0,1.54,1.1Zm9.16,2.947a5.027,5.027,0,0,1-.333,1.8,52.137,52.137,0,0,1-3.824,8.139.946.946,0,1,0,1.627.964,53.907,53.907,0,0,0,3.963-8.424,6.911,6.911,0,0,0,.459-2.469.946.946,0,0,0-.943-.948h0A.946.946,0,0,0,37.382,31.793Z" transform="translate(-0.382 -1.295)" fill="#8d297e"/>
    <path id="Caminho_436" data-name="Caminho 436" d="M33.54,28.979a3.159,3.159,0,0,0-3.952,1.852,38.5,38.5,0,0,1-8.26,13.605,3.184,3.184,0,0,0,4.785,4.2,44.518,44.518,0,0,0,9.41-15.5A3.167,3.167,0,0,0,33.54,28.979Zm.217,3.48A42.861,42.861,0,0,1,24.7,47.383a1.291,1.291,0,0,1-1.876.05,1.256,1.256,0,0,1-.078-1.743,40.121,40.121,0,0,0,8.611-14.183,1.27,1.27,0,0,1,1.532-.754l.091.032A1.278,1.278,0,0,1,33.757,32.459Z" transform="translate(-0.598 -1.511)" fill="#8d297e"/>
  </g>
</svg>
