<svg id="Company" xmlns="http://www.w3.org/2000/svg" width="77.092" height="77.124" viewBox="0 0 77.092 77.124">
  <rect id="Retângulo_14" data-name="Retângulo 14" width="70.015" height="69.595" transform="translate(3.538 6.399)" fill="#f7f7f7"/>
  <rect id="Retângulo_15" data-name="Retângulo 15" width="4.517" height="69.595" transform="translate(69.037 6.399)" fill="#dedede"/>
  <rect id="Retângulo_16" data-name="Retângulo 16" width="74.834" height="5.27" rx="2.635" transform="translate(1.129 1.129)" fill="#676e87"/>
  <path id="Caminho_37" data-name="Caminho 37" d="M469.017,7.29H464.5A1.506,1.506,0,0,1,466.006,8.8v2.259A1.506,1.506,0,0,1,464.5,12.56h4.517a1.506,1.506,0,0,0,1.506-1.506V8.8A1.506,1.506,0,0,0,469.017,7.29Z" transform="translate(-394.56 -6.161)" fill="#595f74"/>
  <rect id="Retângulo_17" data-name="Retângulo 17" width="74.834" height="5.27" rx="2.635" transform="translate(1.129 21.456)" fill="#676e87"/>
  <path id="Caminho_38" data-name="Caminho 38" d="M469.017,142.29H464.5a1.506,1.506,0,0,1,1.506,1.506v2.259a1.506,1.506,0,0,1-1.506,1.506h4.517a1.506,1.506,0,0,0,1.506-1.506V143.8A1.506,1.506,0,0,0,469.017,142.29Z" transform="translate(-394.56 -120.834)" fill="#595f74"/>
  <rect id="Retângulo_18" data-name="Retângulo 18" width="74.834" height="5.27" rx="2.635" transform="translate(1.129 41.783)" fill="#676e87"/>
  <path id="Caminho_39" data-name="Caminho 39" d="M469.017,277.29H464.5a1.506,1.506,0,0,1,1.506,1.506v2.259a1.506,1.506,0,0,1-1.506,1.506h4.517a1.506,1.506,0,0,0,1.506-1.506V278.8A1.506,1.506,0,0,0,469.017,277.29Z" transform="translate(-394.56 -235.507)" fill="#595f74"/>
  <rect id="Retângulo_19" data-name="Retângulo 19" width="26.201" height="17.641" transform="translate(25.445 58.354)" fill="#8cd0ff"/>
  <path id="Caminho_40" data-name="Caminho 40" d="M248.5,398.61V380.969a1.129,1.129,0,1,1,2.259,0V398.61Z" transform="translate(-211.083 -322.616)" fill="#66c1ff"/>
  <rect id="Retângulo_20" data-name="Retângulo 20" width="70.015" height="15.057" transform="translate(3.538 26.726)" fill="#b3e0ff"/>
  <rect id="Retângulo_21" data-name="Retângulo 21" width="14.003" height="15.057" transform="translate(45.548 26.726)" fill="#8cd0ff"/>
  <rect id="Retângulo_22" data-name="Retângulo 22" width="14.003" height="15.057" transform="translate(17.541 26.726)" fill="#8cd0ff"/>
  <rect id="Retângulo_23" data-name="Retângulo 23" width="70.015" height="15.057" transform="translate(3.538 6.399)" fill="#b3e0ff"/>
  <rect id="Retângulo_24" data-name="Retângulo 24" width="14.003" height="15.057" transform="translate(45.548 6.399)" fill="#8cd0ff"/>
  <rect id="Retângulo_25" data-name="Retângulo 25" width="14.003" height="15.057" transform="translate(17.541 6.399)" fill="#8cd0ff"/>
  <rect id="Retângulo_26" data-name="Retângulo 26" width="12.029" height="7.414" rx="3.707" transform="translate(56.622 63.054)" fill="#8cd0ff"/>
  <path id="Caminho_41" data-name="Caminho 41" d="M424.517,418.56H420a.9.9,0,0,1,.9.9v5.606a.9.9,0,0,1-.9.9h4.517a.9.9,0,0,0,.9-.9v-5.606A.9.9,0,0,0,424.517,418.56Z" transform="translate(-356.76 -355.506)" fill="#66c1ff"/>
  <rect id="Retângulo_27" data-name="Retângulo 27" width="12.029" height="7.414" rx="3.707" transform="translate(8.439 63.054)" fill="#8cd0ff"/>
  <path id="Caminho_42" data-name="Caminho 42" d="M104.517,418.56H100a.9.9,0,0,1,.9.9v5.606a.9.9,0,0,1-.9.9h4.517a.9.9,0,0,0,.9-.9v-5.606A.9.9,0,0,0,104.517,418.56Z" transform="translate(-84.943 -355.506)" fill="#66c1ff"/>
  <rect id="Retângulo_28" data-name="Retângulo 28" width="30.718" height="4.517" rx="2.259" transform="translate(23.186 53.836)" fill="#676e87"/>
  <path id="Caminho_43" data-name="Caminho 43" d="M324.517,357.34H320a1.2,1.2,0,0,1,1.2,1.2v2.108a1.2,1.2,0,0,1-1.2,1.2h4.517a1.2,1.2,0,0,0,1.2-1.2v-2.108A1.2,1.2,0,0,0,324.517,357.34Z" transform="translate(-271.817 -303.504)" fill="#595f74"/>
  <path id="Caminho_44" data-name="Caminho 44" d="M401.232,192.347h-.7l9.034-15.057h.7Z" transform="translate(-340.222 -150.564)" fill="#d9f0ff"/>
  <path id="Caminho_45" data-name="Caminho 45" d="M412.473,192.347H410.58l9.034-15.057h1.893Z" transform="translate(-348.759 -150.564)" fill="#d9f0ff"/>
  <path id="Caminho_46" data-name="Caminho 46" d="M309.672,192.347h-.7L318,177.29h.7Z" transform="translate(-262.448 -150.564)" fill="#b3e0ff"/>
  <path id="Caminho_47" data-name="Caminho 47" d="M320.913,192.347H319.02l9.034-15.057h1.893Z" transform="translate(-270.985 -150.564)" fill="#b3e0ff"/>
  <path id="Caminho_48" data-name="Caminho 48" d="M254.88,403.852h-.7l9.908-16.512h.7Z" transform="translate(-215.908 -328.986)" fill="#b3e0ff"/>
  <path id="Caminho_49" data-name="Caminho 49" d="M266.123,403.852H264.23l9.908-16.512h1.893Z" transform="translate(-224.445 -328.986)" fill="#b3e0ff"/>
  <path id="Caminho_50" data-name="Caminho 50" d="M168.99,403.805l9.883-16.475h-.7l-9.183,15.305Z" transform="translate(-143.545 -328.978)" fill="#b3e0ff"/>
  <path id="Caminho_51" data-name="Caminho 51" d="M176.123,403.852H174.23l9.908-16.512h1.893Z" transform="translate(-147.996 -328.986)" fill="#b3e0ff"/>
  <path id="Caminho_52" data-name="Caminho 52" d="M214.34,192.347h-.7l9.034-15.057h.7Z" transform="translate(-181.472 -150.564)" fill="#d9f0ff"/>
  <path id="Caminho_53" data-name="Caminho 53" d="M225.583,192.347H223.69l9.034-15.057h1.893Z" transform="translate(-190.009 -150.564)" fill="#d9f0ff"/>
  <path id="Caminho_54" data-name="Caminho 54" d="M30.82,192.347h-.7l9.034-15.057h.7Z" transform="translate(-25.585 -150.564)" fill="#d9f0ff"/>
  <path id="Caminho_55" data-name="Caminho 55" d="M42.063,192.347H40.17L49.2,177.29H51.1Z" transform="translate(-34.122 -150.564)" fill="#d9f0ff"/>
  <path id="Caminho_56" data-name="Caminho 56" d="M124.7,192.347H124l9.034-15.057h.7Z" transform="translate(-105.329 -150.564)" fill="#b3e0ff"/>
  <path id="Caminho_57" data-name="Caminho 57" d="M135.951,192.347H134.06l9.034-15.057h1.891Z" transform="translate(-113.875 -150.564)" fill="#b3e0ff"/>
  <path id="Caminho_58" data-name="Caminho 58" d="M401.232,57.347h-.7l9.034-15.057h.7Z" transform="translate(-340.222 -35.891)" fill="#d9f0ff"/>
  <path id="Caminho_59" data-name="Caminho 59" d="M412.473,57.347H410.58l9.034-15.057h1.893Z" transform="translate(-348.759 -35.891)" fill="#d9f0ff"/>
  <path id="Caminho_60" data-name="Caminho 60" d="M309.672,57.347h-.7L318,42.29h.7Z" transform="translate(-262.448 -35.891)" fill="#b3e0ff"/>
  <path id="Caminho_61" data-name="Caminho 61" d="M320.913,57.347H319.02l9.034-15.057h1.893Z" transform="translate(-270.985 -35.891)" fill="#b3e0ff"/>
  <path id="Caminho_62" data-name="Caminho 62" d="M214.34,57.347h-.7l9.034-15.057h.7Z" transform="translate(-181.472 -35.891)" fill="#d9f0ff"/>
  <path id="Caminho_63" data-name="Caminho 63" d="M225.583,57.347H223.69l9.034-15.057h1.893Z" transform="translate(-190.009 -35.891)" fill="#d9f0ff"/>
  <path id="Caminho_64" data-name="Caminho 64" d="M42.063,57.347H40.17L49.2,42.29H51.1Z" transform="translate(-34.122 -35.891)" fill="#d9f0ff"/>
  <path id="Caminho_65" data-name="Caminho 65" d="M124.7,57.347H124l9.034-15.057h.7Z" transform="translate(-105.329 -35.891)" fill="#b3e0ff"/>
  <path id="Caminho_66" data-name="Caminho 66" d="M30.82,57.347h-.7L39.154,42.29h.7Z" transform="translate(-25.585 -35.891)" fill="#d9f0ff"/>
  <path id="Caminho_67" data-name="Caminho 67" d="M135.951,57.347H134.06l9.034-15.057h1.891Z" transform="translate(-113.875 -35.891)" fill="#b3e0ff"/>
  <path id="Caminho_68" data-name="Caminho 68" d="M77.092,4.684V2.425A2.638,2.638,0,0,0,74.457-.21H2.635A2.638,2.638,0,0,0,0,2.425V4.684A2.638,2.638,0,0,0,2.409,7.308V20.129A2.636,2.636,0,0,0,0,22.752v2.259a2.638,2.638,0,0,0,2.409,2.624V40.456A2.636,2.636,0,0,0,0,43.079v2.259a2.638,2.638,0,0,0,2.409,2.624V74.655H1.129a1.129,1.129,0,1,0,0,2.259H75.963a1.129,1.129,0,0,0,0-2.259h-1.28V47.962a2.638,2.638,0,0,0,2.409-2.624V43.079a2.636,2.636,0,0,0-2.409-2.623V27.635a2.638,2.638,0,0,0,2.409-2.624V22.752a2.636,2.636,0,0,0-2.409-2.623V7.308A2.638,2.638,0,0,0,77.092,4.684ZM37.417,74.655H26.576V59.273H37.417Zm13.1,0H39.675V59.273H50.516ZM52.7,57.014H24.392a.077.077,0,0,1-.075-.075V54.831a.075.075,0,0,1,.075-.075H52.7a.075.075,0,0,1,.075.075v2.108A.077.077,0,0,1,52.7,57.014ZM72.424,74.655H52.776V59.268a2.335,2.335,0,0,0,2.259-2.329V54.831A2.337,2.337,0,0,0,52.7,52.5H24.392a2.337,2.337,0,0,0-2.334,2.334v2.108a2.335,2.335,0,0,0,2.259,2.329V74.655H4.668V47.973H72.424Zm2.409-31.576v2.259a.376.376,0,0,1-.376.376H2.635a.376.376,0,0,1-.376-.376V43.079a.376.376,0,0,1,.376-.376H74.457a.376.376,0,0,1,.376.376ZM4.668,40.444v-12.8H16.412v12.8Zm14,0v-12.8H30.415v12.8Zm14,0v-12.8H44.418v12.8Zm14,0v-12.8H58.421v12.8Zm14,0v-12.8H72.424v12.8ZM74.834,22.752v2.259a.376.376,0,0,1-.376.376H2.635a.376.376,0,0,1-.376-.376V22.752a.376.376,0,0,1,.376-.376H74.457a.376.376,0,0,1,.376.376ZM4.668,20.117V7.319H16.412v12.8Zm14,0V7.319H30.415v12.8Zm14,0V7.319H44.418v12.8Zm14,0V7.319H58.421v12.8Zm14,0V7.319H72.424v12.8ZM74.457,5.06H2.635a.376.376,0,0,1-.376-.376V2.425a.376.376,0,0,1,.376-.376H74.457a.376.376,0,0,1,.376.376V4.684a.376.376,0,0,1-.376.376ZM8.439,71.386H20.478a1.129,1.129,0,0,0,1.129-1.129V62.844a1.129,1.129,0,0,0-1.129-1.129H8.439A1.129,1.129,0,0,0,7.31,62.844v7.413a1.129,1.129,0,0,0,1.129,1.129Zm1.129-7.413h9.772v5.154H9.569Zm47.053,7.413H68.66a1.129,1.129,0,0,0,1.129-1.129V62.844a1.129,1.129,0,0,0-1.129-1.129H56.63A1.129,1.129,0,0,0,55.5,62.844v7.413a1.129,1.129,0,0,0,1.122,1.129Zm1.129-7.413h9.772v5.154H57.751Z" transform="translate(0 0.21)" fill="#272a33"/>
</svg>
