<svg xmlns="http://www.w3.org/2000/svg" width="83.525" height="92.805" viewBox="0 0 83.525 92.805">
  <g id="defaultProject" transform="translate(-5 -2)">
    <path id="Caminho_361" data-name="Caminho 361" d="M82.057,15.374V86.525a6.187,6.187,0,0,1-6.187,6.187H20.187A6.187,6.187,0,0,1,14,86.525V9.187A6.187,6.187,0,0,1,20.187,3h49.5v9.281a3.1,3.1,0,0,0,3.094,3.094Z" transform="translate(4.921 0.547)" fill="#e6e7e8"/>
    <path id="Caminho_362" data-name="Caminho 362" d="M78.23,24V75.043a6.187,6.187,0,0,1-6.187,6.187H21Z" transform="translate(8.748 12.029)" fill="#d8d7da"/>
    <path id="Caminho_363" data-name="Caminho 363" d="M26.4,56.613a3,3,0,0,1,.789,2.042,3.094,3.094,0,1,1-3.093-3.093,3.033,3.033,0,0,1,2.3,1.052Zm14.71-10.332a3.073,3.073,0,0,1-3.094,3.094,3.033,3.033,0,0,1-2.3-1.052,3,3,0,0,1-.789-2.042,3.094,3.094,0,0,1,6.187,0Zm15.514,6.636a3.094,3.094,0,1,1-1.593-.449,2.939,2.939,0,0,1,1.593.449ZM64.309,37a3.094,3.094,0,1,1,0,6.187,2.939,2.939,0,0,1-1.593-.449A3.094,3.094,0,0,1,64.309,37Z" transform="translate(8.748 19.136)" fill="#ff9811"/>
    <path id="Caminho_364" data-name="Caminho 364" d="M62.374,15.374H53.094A3.1,3.1,0,0,1,50,12.281V3Z" transform="translate(24.604 0.547)" fill="#bcbec0"/>
    <path id="Caminho_365" data-name="Caminho 365" d="M18.64,38.462v2.011a1.511,1.511,0,0,0,.34.959l5.847,7.316a1.547,1.547,0,0,1,1.547,1.547v3.093a1.547,1.547,0,0,1-1.547,1.547H14V24H24.827a1.547,1.547,0,0,1,1.547,1.547V28.64a1.547,1.547,0,0,1-1.547,1.547L18.981,37.5a1.511,1.511,0,0,0-.34.959Z" transform="translate(4.921 12.029)" fill="#d8d7da"/>
    <rect id="Retângulo_105" data-name="Retângulo 105" width="22" height="6" rx="1" transform="translate(6.525 58)" fill="#ee8700"/>
    <path id="Caminho_366" data-name="Caminho 366" d="M25.561,26l-5.847,7.316a1.511,1.511,0,0,0-.34.959v2.011a1.511,1.511,0,0,0,.34.959l5.847,7.316H7l5.847-7.316a1.511,1.511,0,0,0,.34-.959V34.275a1.511,1.511,0,0,0-.34-.959L7,26Z" transform="translate(1.094 13.122)" fill="#ffb655"/>
    <rect id="Retângulo_106" data-name="Retângulo 106" width="22" height="6" rx="1" transform="translate(6.525 33)" fill="#ee8700"/>
    <path id="Caminho_367" data-name="Caminho 367" d="M83.7,14.827,71.323,2.453A1.547,1.547,0,0,0,70.23,2h-49.5A7.743,7.743,0,0,0,13,9.734V28.295h3.094V9.734a4.64,4.64,0,0,1,4.64-4.64H68.683v7.734a4.64,4.64,0,0,0,4.64,4.64h7.734v69.6a4.64,4.64,0,0,1-4.64,4.64H20.734a4.64,4.64,0,0,1-4.64-4.64V68.51H13V87.071a7.743,7.743,0,0,0,7.734,7.734H76.417a7.743,7.743,0,0,0,7.734-7.734V15.921a1.547,1.547,0,0,0-.453-1.093Zm-11.921-2V7.281l7.093,7.093H73.323A1.547,1.547,0,0,1,71.777,12.827Z" transform="translate(4.374)"/>
    <rect id="Retângulo_107" data-name="Retângulo 107" width="3" height="3" transform="translate(26.525 11)"/>
    <rect id="Retângulo_108" data-name="Retângulo 108" width="10" height="3" transform="translate(32.525 11)"/>
    <rect id="Retângulo_109" data-name="Retângulo 109" width="16" height="4" transform="translate(26.525 17)"/>
    <path id="Caminho_368" data-name="Caminho 368" d="M43.2,46.827a4.64,4.64,0,1,0-8.934,1.742l-7.4,6.588a4.58,4.58,0,0,0-2.229-.6,4.663,4.663,0,1,0,4.294,2.9l7.4-6.588a4.524,4.524,0,0,0,5.31-.6l9.367,5.1a4.524,4.524,0,0,0-.074.733,4.64,4.64,0,1,0,9.281,0,4.592,4.592,0,0,0-1.073-2.939l4.786-7.983a4.584,4.584,0,0,0,.928.094,4.64,4.64,0,1,0-4.64-4.64,4.592,4.592,0,0,0,1.073,2.939L56.5,51.562a4.574,4.574,0,0,0-4.009,1.1l-9.367-5.1A4.524,4.524,0,0,0,43.2,46.827ZM24.64,60.748A1.547,1.547,0,1,1,26.187,59.2,1.547,1.547,0,0,1,24.64,60.748ZM38.561,48.374a1.547,1.547,0,1,1,1.547-1.547A1.547,1.547,0,0,1,38.561,48.374Zm26.295-9.281a1.547,1.547,0,1,1-1.547,1.547A1.547,1.547,0,0,1,64.856,39.093ZM55.575,54.561a1.547,1.547,0,1,1-1.547,1.547A1.547,1.547,0,0,1,55.575,54.561Z" transform="translate(8.201 18.59)"/>
    <rect id="Retângulo_110" data-name="Retângulo 110" width="19" height="3" transform="translate(60.525 30)"/>
    <rect id="Retângulo_111" data-name="Retângulo 111" width="25" height="3" transform="translate(32.525 30)"/>
    <rect id="Retângulo_112" data-name="Retângulo 112" width="19" height="3" transform="translate(60.525 36)"/>
    <rect id="Retângulo_113" data-name="Retângulo 113" width="25" height="3" transform="translate(32.525 36)"/>
    <rect id="Retângulo_114" data-name="Retângulo 114" width="19" height="3" transform="translate(60.525 42)"/>
    <rect id="Retângulo_115" data-name="Retângulo 115" width="25" height="3" transform="translate(32.525 42)"/>
    <rect id="Retângulo_116" data-name="Retângulo 116" width="19" height="3" transform="translate(60.525 48)"/>
    <rect id="Retângulo_117" data-name="Retângulo 117" width="25" height="3" transform="translate(32.525 48)"/>
    <path id="Caminho_369" data-name="Caminho 369" d="M27.5,30.147a3.093,3.093,0,0,0,2.244-2.96V24.094A3.094,3.094,0,0,0,26.655,21H8.094A3.093,3.093,0,0,0,5,24.094v3.094a3.093,3.093,0,0,0,2.244,2.96l5.489,6.863v2.011l-5.489,6.86A3.094,3.094,0,0,0,5,48.842v3.094a3.094,3.094,0,0,0,3.094,3.093H26.655a3.094,3.094,0,0,0,3.094-3.093V48.842a3.094,3.094,0,0,0-2.244-2.96l-5.489-6.863V37.007ZM8.094,24.094H26.655v3.094H8.094Zm0,27.842V48.842H26.655v3.094ZM19.6,40.953l3.839,4.795H11.311l3.837-4.795a3.094,3.094,0,0,0,.679-1.935V37.007a3.093,3.093,0,0,0-.677-1.932l-3.839-4.795H23.437L19.6,35.075a3.093,3.093,0,0,0-.679,1.935v2.011a3.093,3.093,0,0,0,.677,1.932Z" transform="translate(0 10.388)"/>
  </g>
</svg>
