<svg xmlns="http://www.w3.org/2000/svg" width="91" height="80.017" viewBox="0 0 91 80.017">
  <g id="defaultDepartment" transform="translate(-171 -6.5)">
    <path id="Caminho_343" data-name="Caminho 343" d="M207.569,30.034h6.276v4.707a1.568,1.568,0,0,0,1.569,1.569h20.4a1.568,1.568,0,0,0,1.569-1.569V8.069A1.568,1.568,0,0,0,235.811,6.5h-20.4a1.568,1.568,0,0,0-1.569,1.569V18.484l-7.482,8.978a1.569,1.569,0,0,0,1.207,2.573Z" transform="translate(19.913 0)"/>
    <path id="Caminho_344" data-name="Caminho 344" d="M214.837,18.92a1.575,1.575,0,0,0,.362-1.006V8.5h17.259V32.034H215.2V27.328a1.568,1.568,0,0,0-1.569-1.569h-4.5Z" transform="translate(21.697 1.138)" fill="#dccece"/>
    <path id="Caminho_345" data-name="Caminho 345" d="M214.138,39.5a1.568,1.568,0,0,0-1.569,1.569,4.76,4.76,0,0,1-.62,1.652A6.874,6.874,0,0,0,211,45.776a1.569,1.569,0,0,0,3.138,0,4.76,4.76,0,0,1,.62-1.652,6.874,6.874,0,0,0,.949-3.055A1.568,1.568,0,0,0,214.138,39.5Zm3.138,7.845a1.568,1.568,0,0,0,1.569-1.569,4.76,4.76,0,0,1,.62-1.652,6.874,6.874,0,0,0,.949-3.055,1.569,1.569,0,1,0-3.138,0,4.76,4.76,0,0,1-.62,1.652,6.874,6.874,0,0,0-.949,3.055A1.568,1.568,0,0,0,217.276,47.345Z" transform="translate(22.759 18.776)"/>
    <path id="Caminho_346" data-name="Caminho 346" d="M260.431,77.121V73.983a1.569,1.569,0,1,0,0-3.138h-1.809a1.514,1.514,0,0,0,.24-.784V50.448a1.568,1.568,0,0,0-1.569-1.569h-3.138a1.568,1.568,0,0,0-1.569-1.569h-4.707a1.568,1.568,0,0,0-1.569,1.569V70.06a1.514,1.514,0,0,0,.24.784h-4.6a4.677,4.677,0,0,0,1.224-3.138V63a1.568,1.568,0,0,0-1.569-1.569h-6.276A1.568,1.568,0,0,0,233.757,63v4.707a4.677,4.677,0,0,0,1.224,3.138h-7.5V64.569a4.713,4.713,0,0,0,4.707-4.707V44.172a4.713,4.713,0,0,0-4.707-4.707h-1.569a1.568,1.568,0,0,0-1.569-1.569,3.466,3.466,0,0,1-2.148-.766,4.671,4.671,0,0,0,.563-7.437c-.166-7.2-5.267-12.194-12.536-12.194s-12.37,5-12.536,12.194a4.671,4.671,0,0,0,.563,7.437,3.466,3.466,0,0,1-2.148.766,1.568,1.568,0,0,0-1.569,1.569,7.542,7.542,0,0,0,1.643,4.806,4.147,4.147,0,0,0-3.212,4.062v3.684H175.707a1.568,1.568,0,0,0-1.569,1.569V70.845h-1.569a1.569,1.569,0,0,0,0,3.138v3.138a1.569,1.569,0,0,0,0,3.138h87.862a1.569,1.569,0,1,0,0-3.138Z" transform="translate(0 6.259)"/>
    <path id="Caminho_347" data-name="Caminho 347" d="M213,47.5h3.138v3.138a1.569,1.569,0,0,1-3.138,0Z" transform="translate(23.897 23.328)" fill="#dccece"/>
    <path id="Caminho_348" data-name="Caminho 348" d="M221,46.483l1.569-1.569v7.98H221Z" transform="translate(28.448 21.856)" fill="#b03e9f"/>
    <path id="Caminho_349" data-name="Caminho 349" d="M224,46.483l1.569-1.569v7.98H224Z" transform="translate(30.155 21.856)" fill="#fbb040"/>
    <path id="Caminho_350" data-name="Caminho 350" d="M225.569,39.5v4.057L224,45.126V39.5Z" transform="translate(30.155 18.776)" fill="#fbb040"/>
    <path id="Caminho_351" data-name="Caminho 351" d="M222.569,38.5v5.626L221,45.7V38.5Z" transform="translate(28.448 18.207)" fill="#b03e9f"/>
    <path id="Caminho_352" data-name="Caminho 352" d="M208.165,33.5a1.571,1.571,0,0,1,1.569,1.569v15.69a1.571,1.571,0,0,1-1.569,1.569V39.23a4.147,4.147,0,0,0-3.212-4.062,7.546,7.546,0,0,0,1-1.668Z" transform="translate(19.318 15.362)" fill="#0e0f34"/>
    <path id="Caminho_353" data-name="Caminho 353" d="M189,28.069a1.571,1.571,0,0,1,1.569-1.569v1.348a11.657,11.657,0,0,1-.646,1.641A1.562,1.562,0,0,1,189,28.069Zm21.966,0a1.562,1.562,0,0,1-.923,1.42,11.461,11.461,0,0,1-.646-1.641V26.5A1.571,1.571,0,0,1,210.966,28.069Z" transform="translate(10.241 11.379)" fill="#8d297e"/>
    <path id="Caminho_354" data-name="Caminho 354" d="M192,28.4h4.707a1.562,1.562,0,0,0,1.109-.46l2.029-2.029,2.029,2.029a1.565,1.565,0,0,0,1.109.46h1.569v1.569a6.276,6.276,0,0,1-12.552,0Zm4.707,10.842a8.787,8.787,0,0,0,3.138,0v1.71a1.569,1.569,0,0,1-3.138,0Z" transform="translate(11.948 11.046)" fill="#c9ac68"/>
    <path id="Caminho_355" data-name="Caminho 355" d="M199.375,19.5c4.293,0,8.612,2.454,9.307,7.867a1.572,1.572,0,0,0-.4.082,9.4,9.4,0,0,0-17.8,0,1.64,1.64,0,0,0-.4-.082C190.763,21.954,195.082,19.5,199.375,19.5Z" transform="translate(10.849 7.397)" fill="#b03e9f"/>
    <path id="Caminho_356" data-name="Caminho 356" d="M187,37.523a.987.987,0,0,1,.941-1.023H196.7a4.678,4.678,0,0,0,8.835,0H214.3a.987.987,0,0,1,.941,1.023V60.034H207.4V56.9h3.138a1.568,1.568,0,0,0,1.569-1.569V47.483a1.569,1.569,0,0,0-3.138,0v6.276h-3.138a11.762,11.762,0,0,0-6.276,1.833V42.776a1.568,1.568,0,0,0-1.569-1.569H187V37.523Z" transform="translate(9.103 17.069)" fill="#f15d9a"/>
    <path id="Caminho_357" data-name="Caminho 357" d="M195.2,52.579c.764-1.952,2.892-2.7,4.4-2.975v2.975Z" transform="translate(13.767 24.525)" fill="#c9ac68"/>
    <rect id="Ret창ngulo_103" data-name="Ret창ngulo 103" width="28.241" height="15.69" transform="translate(177.276 61.414)" fill="#8d297e"/>
    <path id="Caminho_358" data-name="Caminho 358" d="M186.207,47.138V44h-.784a3.922,3.922,0,1,0,3.922,3.922v-.784Z" transform="translate(5.974 21.336)" fill="#2a2a2a"/>
    <rect id="Ret창ngulo_104" data-name="Ret창ngulo 104" width="81.586" height="3.138" transform="translate(175.707 80.241)" fill="#3c2415"/>
    <path id="Caminho_359" data-name="Caminho 359" d="M215.569,27.759h10.983a1.569,1.569,0,1,0,0-3.138H215.569a1.569,1.569,0,1,0,0,3.138Zm0-4.707h10.983a1.569,1.569,0,1,0,0-3.138H215.569a1.569,1.569,0,1,0,0,3.138Zm0-4.707h10.983a1.569,1.569,0,1,0,0-3.138H215.569a1.569,1.569,0,1,0,0,3.138Zm0-4.707h10.983a1.569,1.569,0,1,0,0-3.138H215.569a1.569,1.569,0,1,0,0,3.138Z" transform="translate(24.466 2.276)"/>
  </g>
</svg>
