<svg xmlns="http://www.w3.org/2000/svg" width="74.4" height="62" viewBox="0 0 74.4 62">
  <g id="Web_Programing" data-name="Web Programing" transform="translate(-2 -7)">
    <rect id="Retângulo_38" data-name="Retângulo 38" width="73" height="60" rx="4" transform="translate(3 8)" fill="#d6ecf9"/>
    <path id="Caminho_78" data-name="Caminho 78" d="M7.96,8h62a4.96,4.96,0,0,1,4.96,4.96v9.92H3V12.96A4.96,4.96,0,0,1,7.96,8Z" transform="translate(0.24 0.24)" fill="#1a1a1a"/>
    <ellipse id="Button_3" data-name="Button 3" cx="2.5" cy="3.5" rx="2.5" ry="3.5" transform="translate(10 12)" fill="red"/>
    <circle id="Button_2" data-name="Button 2" cx="3.5" cy="3.5" r="3.5" transform="translate(21 12)" fill="#ff0"/>
    <ellipse id="Button_1" data-name="Button 1" cx="2.5" cy="3.5" rx="2.5" ry="3.5" transform="translate(33 12)" fill="lime"/>
    <path id="Caminho_79" data-name="Caminho 79" d="M70.2,7H8.2A6.2,6.2,0,0,0,2,13.2V62.8A6.2,6.2,0,0,0,8.2,69h62a6.2,6.2,0,0,0,6.2-6.2V13.2A6.2,6.2,0,0,0,70.2,7ZM8.2,9.48h62a3.72,3.72,0,0,1,3.72,3.72v8.68H4.48V13.2A3.72,3.72,0,0,1,8.2,9.48Zm62,57.04H8.2A3.72,3.72,0,0,1,4.48,62.8V24.36H73.92V62.8A3.72,3.72,0,0,1,70.2,66.52Z" transform="translate(0)" fill="#050505"/>
    <path id="Caminho_80" data-name="Caminho 80" d="M27.881,50.321a1.24,1.24,0,0,1-.67-.2l-13.64-8.68a1.24,1.24,0,0,1,0-2.1l13.64-8.68a1.24,1.24,0,1,1,1.327,2.1L16.548,40.4,28.538,48.04a1.24,1.24,0,0,1-.657,2.282Zm17.36,0a1.24,1.24,0,0,1-.67-2.282l12-7.638L44.584,32.763a1.24,1.24,0,0,1,1.327-2.1l13.64,8.68a1.24,1.24,0,0,1,0,2.1l-13.64,8.68A1.24,1.24,0,0,1,45.241,50.321Zm-12.4,2.48a1.24,1.24,0,0,1-1.178-1.637l7.44-22.32a1.241,1.241,0,0,1,2.356.781l-7.44,22.32A1.24,1.24,0,0,1,32.841,52.8Z" transform="translate(2.639 5.039)" fill="#0c68af"/>
  </g>
</svg>
