<svg xmlns="http://www.w3.org/2000/svg" width="770.921" height="419.063" viewBox="0 0 770.921 419.063">
  <g id="Grupo_38" data-name="Grupo 38" transform="translate(0.098)">
    <ellipse id="Elipse_33" data-name="Elipse 33" cx="378.371" cy="25.049" rx="378.371" ry="25.049" transform="translate(9.427 368.965)" fill="#d1d1d1"/>
    <path id="Caminho_381" data-name="Caminho 381" d="M541.738,324.894c-61.647,0-105.909,39.551-105.909,131.837,0,104.59,44.262,132.276,105.909,132.276s108.545-30.322,108.545-132.276C650.283,347.746,603.384,324.894,541.738,324.894Zm.405,229.4c-42.7,0-65.005-25.05-65.005-97.491,0-63.919,23.22-97.627,65.918-97.627s65.918,22.141,65.918,97.627c0,70.616-24.134,97.492-66.831,97.492Z" transform="translate(-168.441 -205.1)" fill="#fff"/>
    <path id="Caminho_382" data-name="Caminho 382" d="M309.021,520.147H283.533V445.091A15.031,15.031,0,0,0,268.5,430.059h-5.972A15.031,15.031,0,0,0,247.5,445.091v75.057H175.6a8.581,8.581,0,0,1-7.587-12.59L244.108,363.54a15.031,15.031,0,0,0-6.872-20.614l-4.492-2.121a15.031,15.031,0,0,0-19.675,6.506l-92.8,173.607a20.382,20.382,0,0,0-2.407,9.609h0a20.382,20.382,0,0,0,20.382,20.382H247.5V598.37a18.018,18.018,0,0,0,18.018,18.018h0a18.018,18.018,0,0,0,18.018-18.018V550.909h25.488A15.381,15.381,0,0,0,324.4,535.528h0a15.381,15.381,0,0,0-15.381-15.381Z" transform="translate(-78.548 -209.19)" fill="#fff"/>
    <path id="Caminho_383" data-name="Caminho 383" d="M967.016,520.147H941.528V445.091a15.031,15.031,0,0,0-15.03-15.032h-5.972a15.032,15.032,0,0,0-15.031,15.031v75.057H833.6a8.581,8.581,0,0,1-7.587-12.59L902.1,363.54a15.031,15.031,0,0,0-6.872-20.614l-4.492-2.121a15.031,15.031,0,0,0-19.675,6.506l-92.8,173.607a20.382,20.382,0,0,0-2.407,9.609h0a20.382,20.382,0,0,0,20.382,20.382H905.494V598.37a18.018,18.018,0,0,0,18.018,18.018h0a18.018,18.018,0,0,0,18.018-18.018V550.909h25.488A15.381,15.381,0,0,0,982.4,535.528h0a15.381,15.381,0,0,0-15.382-15.381Z" transform="translate(-264.57 -209.19)" fill="#fff"/>
    <path id="Caminho_384" data-name="Caminho 384" d="M318.824,507.894H293.336V432.838A15.031,15.031,0,0,0,278.3,417.806h-5.972A15.031,15.031,0,0,0,257.3,432.838v75.057H185.406a8.581,8.581,0,0,1-7.587-12.59l76.092-144.018a15.031,15.031,0,0,0-6.872-20.614l-4.492-2.121a15.031,15.031,0,0,0-19.675,6.506l-92.8,173.607a20.382,20.382,0,0,0-2.407,9.609h0a20.382,20.382,0,0,0,20.382,20.382H257.3v47.461a18.018,18.018,0,0,0,18.018,18.018h0a18.018,18.018,0,0,0,18.018-18.018V538.656h25.488A15.381,15.381,0,0,0,334.2,523.275h0a15.381,15.381,0,0,0-15.38-15.381Z" transform="translate(-81.319 -205.726)" fill="none" stroke="#3f3d56" stroke-miterlimit="10" stroke-width="1"/>
    <path id="Caminho_385" data-name="Caminho 385" d="M985.4,507.894H959.908V432.838a15.031,15.031,0,0,0-15.031-15.031h-5.971a15.031,15.031,0,0,0-15.031,15.031v75.057H851.98a8.581,8.581,0,0,1-7.587-12.59l76.092-144.018a15.032,15.032,0,0,0-6.872-20.614l-4.492-2.121a15.031,15.031,0,0,0-19.675,6.506l-92.8,173.607a20.383,20.383,0,0,0-2.407,9.609h0a20.382,20.382,0,0,0,20.382,20.382H923.874v47.461a18.018,18.018,0,0,0,18.018,18.018h0a18.018,18.018,0,0,0,18.018-18.018V538.656H985.4a15.381,15.381,0,0,0,15.381-15.381h0A15.381,15.381,0,0,0,985.4,507.894Z" transform="translate(-269.766 -205.726)" fill="none" stroke="#3f3d56" stroke-miterlimit="10" stroke-width="1"/>
    <path id="Caminho_386" data-name="Caminho 386" d="M561.343,313.866c-61.647,0-105.909,39.551-105.909,131.837,0,104.59,44.262,132.276,105.909,132.276S669.888,547.656,669.888,445.7C669.888,336.718,622.989,313.866,561.343,313.866Zm.405,229.4c-42.7,0-65.005-25.05-65.005-97.491,0-63.919,23.22-97.627,65.918-97.627s65.918,22.141,65.918,97.627c0,70.616-24.133,97.492-66.831,97.492Z" transform="translate(-173.983 -201.982)" fill="none" stroke="#3f3d56" stroke-miterlimit="10" stroke-width="1"/>
    <circle id="Elipse_34" data-name="Elipse 34" cx="9.254" cy="9.254" r="9.254" transform="translate(328.691 3.837)" fill="#2f2e41"/>
    <ellipse id="Elipse_35" data-name="Elipse 35" cx="25.956" cy="33.63" rx="25.956" ry="33.63" transform="translate(334.559 0)" fill="#2f2e41"/>
    <path id="Caminho_387" data-name="Caminho 387" d="M555.431,226.241c-13,0-23.772-12.388-25.662-28.552a43.729,43.729,0,0,0-.294,5.078c0,18.573,11.621,33.63,25.956,33.63s25.956-15.057,25.956-33.63a43.743,43.743,0,0,0-.294-5.078C579.2,213.853,568.434,226.241,555.431,226.241Z" transform="translate(-194.915 -169.138)" opacity="0.1"/>
    <path id="Caminho_388" data-name="Caminho 388" d="M623.816,338.394c-.557,2.291-2.961,4.125-5.623,5.407-5.6,2.695-12.5,3.5-19.194,3.769a32.407,32.407,0,0,1-5.125-.095,14.731,14.731,0,0,1-8.787-4.039,1.206,1.206,0,0,1,.031-2.04c3.565-3.916,9.513-6.316,15.505-8.045,4.544-1.311,12.467-4.706,17.423-4.248C622.846,329.547,624.519,335.5,623.816,338.394Z" transform="translate(-210.483 -206.278)" fill="#3f3d56"/>
    <path id="Caminho_389" data-name="Caminho 389" d="M623.816,338.394c-.557,2.291-2.961,4.125-5.623,5.407-5.6,2.695-12.5,3.5-19.194,3.769a32.407,32.407,0,0,1-5.125-.095,14.731,14.731,0,0,1-8.787-4.039,1.206,1.206,0,0,1,.031-2.04c3.565-3.916,9.513-6.316,15.505-8.045,4.544-1.311,12.467-4.706,17.423-4.248C622.846,329.547,624.519,335.5,623.816,338.394Z" transform="translate(-210.483 -206.278)" opacity="0.1"/>
    <path id="Caminho_390" data-name="Caminho 390" d="M539.487,303.463a14.18,14.18,0,0,0-.86,10.813,18.893,18.893,0,0,0,6.333,8.964c7.241,5.8,17.206,6.6,26.486,6.522a204.172,204.172,0,0,0,24.32-1.667,29.077,29.077,0,0,0,7.891-1.832,12.1,12.1,0,0,0,6.768-6.833,8.324,8.324,0,0,0-2.248-9.019c-2.25-1.829-5.353-2.08-8.247-2.254l-16.56-1c1.636-1.656,3.815-2.592,5.807-3.8,2.643-1.6,4.4-4.278,6.322-6.7a92.524,92.524,0,0,1,9.639-9.911c.539,3.092,2.495,5.631,4.8,7.764s4.955,3.851,7.348,5.882c5.795,4.919,9.967,11.6,16.062,16.139a31.438,31.438,0,0,0,11.512-5.747l-2.369-4.29a2.826,2.826,0,0,0-.893-1.114c-.67-.412-1.535-.2-2.313-.317-2.081-.312-2.989-2.714-3.806-4.653-2.242-5.324-6.533-9.454-10.2-13.918a70.3,70.3,0,0,1-7.17-10.561,36.128,36.128,0,0,0-4.029-6.458,9.088,9.088,0,0,0-6.555-3.429c-2.247,0-4.319,1.136-6.251,2.283a165.311,165.311,0,0,0-16.95,11.548c-2.829,2.2-5.64,4.516-8.958,5.863-1.4.567-2.869.954-4.21,1.644-2.348,1.208-4.13,3.252-6.048,5.067A40.2,40.2,0,0,1,539.487,303.463Z" transform="translate(-197.308 -188.466)" fill="#3f3d56"/>
    <path id="Caminho_391" data-name="Caminho 391" d="M579.973,242.373a17.053,17.053,0,0,1-1.244,5.762,7.205,7.205,0,0,1-4.137,4,8.877,8.877,0,0,1-4.033.131,7.8,7.8,0,0,1-3.286-1.119,7.006,7.006,0,0,1-2.609-4.837c-.282-1.862-.156-3.765-.336-5.64a30.81,30.81,0,0,0-.862-4.487c-.122-.49-.246-.977-.368-1.465s-.237-.975-.345-1.463c-.1-.458-.192-.919-.271-1.381-.065-.39-.124-.783-.167-1.178a13.215,13.215,0,0,0-.58-3.451,10.476,10.476,0,0,0-1.21-2.047c-.205-.293-.4-.587-.587-.892a4.224,4.224,0,0,1-.7-2.688,2.354,2.354,0,0,1,.106-.431c.018-.054.038-.108.061-.16a1.292,1.292,0,0,0,.882-.824,2.462,2.462,0,0,0-.106-1.275,8.119,8.119,0,0,0-.688-1.641c-.19-.343-.833-.961-.837-1.354-.009-.79,1.535-1.426,2.16-1.738a12.048,12.048,0,0,1,6.166-1.25,4.548,4.548,0,0,1,3.6,1.657c.677,1.031.587,2.368.876,3.566a1.055,1.055,0,0,0,.214.476.962.962,0,0,0,.531.244,3.263,3.263,0,0,0,1.016.041h0a2.1,2.1,0,0,0,.266-.038,3.556,3.556,0,0,0,1.458-.63q.42-.112.846-.183a.181.181,0,0,0,.034-.007c1.131,3.568,1.277,7.394,2.2,11.028a28.305,28.305,0,0,1,1.207,5.453c.007.081.009.165.011.248.014.6-.034,1.2-.009,1.8a5.006,5.006,0,0,0,.09.8,11.186,11.186,0,0,0,.377,1.25l.007.02c.043.131.083.264.117.4.025.1.047.192.065.289l0,.007A10.718,10.718,0,0,1,579.973,242.373Z" transform="translate(-203.166 -173.442)" fill="#fbbebe"/>
    <circle id="Elipse_36" data-name="Elipse 36" cx="13.317" cy="13.317" r="13.317" transform="translate(347.651 18.959)" fill="#fbbebe"/>
    <path id="Caminho_392" data-name="Caminho 392" d="M653.709,280.261a21.838,21.838,0,0,0-3.756-10.116q.518,3.081,1.038,6.159a2.305,2.305,0,0,1-2.415-.743,7.415,7.415,0,0,1-1.266-2.35,48.394,48.394,0,0,0-5.889-10.57c-8.478-.706-16.858-4.221-24.313-8.317s-14.436-9-21.794-13.271a31.257,31.257,0,0,0-3.977-2.031c-2.3-.923-4.886-1.4-7.069-2.487-.147-.072-.293-.149-.438-.228a9.016,9.016,0,0,1-1.395-.937,7.405,7.405,0,0,1-.668-.614,14.6,14.6,0,0,1-2.553-4.27c-1.171-2.591-1.589-5.717-2.758-8.308a8.037,8.037,0,0,1,1.794-1.266h0c.095-.05.19-.1.287-.142a8.561,8.561,0,0,1,1.438-.526q.42-.112.846-.183a.181.181,0,0,0,.034-.007,8.3,8.3,0,0,1,3.938.311,18.213,18.213,0,0,1,4.979,3.065,81.789,81.789,0,0,1,7.279,5.774c1.286,1.232,2.46,2.587,3.844,3.706a30.235,30.235,0,0,0,3.627,2.4q11.23,6.69,22.462,13.377c2.535,1.51,5.072,3.02,7.55,4.618,3.765,2.429,7.394,5.06,11.021,7.69q3.206,2.323,6.41,4.647a6.978,6.978,0,0,1,1.817,1.679,6.077,6.077,0,0,1,.806,2.462A22.513,22.513,0,0,1,653.709,280.261Z" transform="translate(-208.198 -175.43)" fill="#fbbebe"/>
    <path id="Caminho_393" data-name="Caminho 393" d="M576.33,254.42c-.9,4.029-4.97,6.464-7.1,10-2.645,4.392-1.566,9.5-.573,14.529l-5.446,4.692c-1,.86-2,1.724-3.083,2.485a41.128,41.128,0,0,1-4.92,2.826l-4.821,2.48a23.043,23.043,0,0,1-4.719,2c-3.167.813-6.53.244-9.662-.7a4.363,4.363,0,0,1-1.056-.431,1.718,1.718,0,0,1-.5-.454,2.805,2.805,0,0,1-.318-1.821,85.614,85.614,0,0,1,2.891-15.558,45.863,45.863,0,0,1,6.645-16.3,49.042,49.042,0,0,1,5.688-8.259,13.254,13.254,0,0,0,2.636-3.4c.8-1.828.492-3.925.655-5.916a12.3,12.3,0,0,1,1.171-4.309v0a12.263,12.263,0,0,1,1.25-2.067l.657,1.528q.217.5.429,1,.278.643.551,1.282l1.575,3.668a15.487,15.487,0,0,0,2.392,4.264,4.662,4.662,0,0,0,7.979-.612,15.251,15.251,0,0,0,1.63-4.313,13.783,13.783,0,0,0,.181-5.62c-.544-3.593-2.072-7.263-3.182-10.6a10.718,10.718,0,0,1-.774-3.494,2.4,2.4,0,0,1,.041-.4c.007-.034.014-.07.02-.1a8.57,8.57,0,0,1,1.438-.526q.42-.112.846-.183,1.466,7.936,2.936,15.872c.023.124.047.248.07.375.14.758.282,1.517.44,2.273.142.686.3,1.37.467,2.049l.007.02c.059.23.12.458.183.686l0,.007c.174.623.368,1.241.587,1.851C574.867,246.91,577.181,250.607,576.33,254.42Z" transform="translate(-196.221 -175.475)" fill="#b03e9f"/>
    <path id="Caminho_394" data-name="Caminho 394" d="M668.318,341.866a4.722,4.722,0,0,0,.438,2.255c.833,1.523,2.833,1.869,4.564,2.012a135.121,135.121,0,0,0,30.317-.924,3.5,3.5,0,0,0,1.543-.479c1.427-1,.547-3.44-1.011-4.22s-3.408-.593-5.118-.931a16.124,16.124,0,0,1-4.79-2.077q-5.2-2.989-10.252-6.232c-2-1.287-4.37-2.661-6.628-1.9C671.266,331.441,668.278,335.27,668.318,341.866Z" transform="translate(-234.166 -206.304)" fill="#3f3d56"/>
    <path id="Caminho_395" data-name="Caminho 395" d="M547.869,236.334v0c-.016.095-.032.187-.052.28-.025.154-.054.309-.083.463-.28,1.433-.623,2.86-1.018,4.277-1.083,3.916-2.535,7.769-3.975,11.565q-5.8,15.269-11.594,30.54c-.975,2.564-1.948,5.13-3.056,7.642-.37.837-.752,1.681-1.131,2.535a35.268,35.268,0,0,0-3.1,9.457,19.691,19.691,0,0,0-.138,6.485,6.653,6.653,0,0,0,3.751,5c.989.386,2.4.9,2.133,1.93-.147.564-.788.84-1.363.934a5.245,5.245,0,0,1-4.279-1.232c-1.081-.959-1.912-2.451-3.35-2.611a5.665,5.665,0,0,0-2.824.905c-3.72,1.7-8.053.51-11.96-.7a4.2,4.2,0,0,1,3.474-2.941,28.1,28.1,0,0,1,4.819-.135,2.517,2.517,0,0,0,1.465-.377,2.658,2.658,0,0,0,.79-1.35,56.651,56.651,0,0,0,2.3-9.43c.519-3.347.736-6.746,1.476-10.053.576-2.58,1.465-5.078,2.228-7.611a161.171,161.171,0,0,0,3.629-15.835,55.986,55.986,0,0,0,1.022-6.719c.129-1.873.068-3.756.248-5.622a43.681,43.681,0,0,1,1.515-7.171q1.036-3.836,2.07-7.667c1.022-3.781,2.119-7.708,4.71-10.646a10.015,10.015,0,0,1,7.193-3.435,7.086,7.086,0,0,1,1.528.165c.083.02.167.041.25.063a6.194,6.194,0,0,1,1.56.646c.8-.508,1.205-.33,1.736.454a5,5,0,0,1,.632,2.722A37.6,37.6,0,0,1,547.869,236.334Z" transform="translate(-188.232 -176.806)" fill="#fbbebe"/>
    <path id="Caminho_396" data-name="Caminho 396" d="M563.308,239.221l-.034.034-.183.183-1.815,1.812-.889-3.735-3.049-12.807a7.089,7.089,0,0,1,1.528.165,2.354,2.354,0,0,1,.106-.431l.144.494,1.034,3.516,1.957,6.676.323,1.1v0Z" transform="translate(-202.793 -176.701)" fill="#b03e9f"/>
    <path id="Caminho_397" data-name="Caminho 397" d="M570.327,184.529a9.025,9.025,0,0,1-2.654,6.381,8.832,8.832,0,0,1-.976.844,8.986,8.986,0,0,1-5.405,1.811H550.464a9.031,9.031,0,0,1,0-18.062h10.828A9.059,9.059,0,0,1,570.327,184.529Z" transform="translate(-198.296 -162.865)" fill="#2f2e41"/>
    <circle id="Elipse_37" data-name="Elipse 37" cx="9.254" cy="9.254" r="9.254" transform="translate(372.929 3.837)" fill="#2f2e41"/>
    <path id="Caminho_398" data-name="Caminho 398" d="M595.421,163.234c-.114,0-.226,0-.339.009a9.251,9.251,0,0,1,0,18.491c.113,0,.225.009.339.009a9.254,9.254,0,1,0,0-18.508Z" transform="translate(-213.463 -159.397)" opacity="0.1"/>
    <path id="Caminho_399" data-name="Caminho 399" d="M530.548,163.234c.114,0,.226,0,.339.009a9.251,9.251,0,0,0,0,18.491c-.113,0-.225.009-.339.009a9.254,9.254,0,1,1,0-18.508Z" transform="translate(-192.603 -159.397)" opacity="0.1"/>
    <path id="Caminho_400" data-name="Caminho 400" d="M568.126,198.159a8.986,8.986,0,0,1-5.405,1.811H551.893a8.987,8.987,0,0,1-5.405-1.811Z" transform="translate(-199.725 -169.271)" opacity="0.1"/>
    <path id="Caminho_401" data-name="Caminho 401" d="M674.14,290.121s2.333,6.722,4.468,4.932l-1.7-8.786Z" transform="translate(-235.814 -194.179)" fill="#fbbebe"/>
    <path id="Caminho_402" data-name="Caminho 402" d="M1066.044,566.02a14.929,14.929,0,1,0,1.988-28.631l.374,7.684-3.635-6.585a14.872,14.872,0,0,0-7.663,8.409,14.642,14.642,0,0,0-.859,4.038,14.926,14.926,0,0,0,9.8,15.085Z" transform="translate(-343.829 -265.081)" fill="#57b894"/>
    <path id="Caminho_403" data-name="Caminho 403" d="M1093.892,650.082c-1.283-6.535,4.277-12.328,9.77-16.094s11.911-7.465,13.785-13.856c2.693-9.184-5.329-17.595-11.574-24.848a89.884,89.884,0,0,1-11.852-17.615,24.248,24.248,0,0,1-2.835-8.009c-.492-4.071.815-8.122,2.133-12.005q6.584-19.4,14.079-38.483" transform="translate(-353.686 -260.024)" fill="none" stroke="#3f3d56" stroke-miterlimit="10" stroke-width="1"/>
    <path id="Caminho_404" data-name="Caminho 404" d="M1066.894,563.262a14.929,14.929,0,1,0,1.988-28.631l.374,7.684-3.635-6.585a14.872,14.872,0,0,0-7.663,8.409,14.633,14.633,0,0,0-.859,4.038A14.926,14.926,0,0,0,1066.894,563.262Z" transform="translate(-344.069 -264.301)" fill="none" stroke="#3f3d56" stroke-miterlimit="10" stroke-width="1"/>
    <path id="Caminho_405" data-name="Caminho 405" d="M1092.1,511.6a14.911,14.911,0,0,1,10.745-9.467l1.229,7.3,2.279-7.672A14.927,14.927,0,1,1,1092.1,511.6Z" transform="translate(-353.721 -255.102)" fill="#57b894"/>
    <path id="Caminho_406" data-name="Caminho 406" d="M1093.237,507.919a14.911,14.911,0,0,1,10.745-9.466l1.229,7.3,2.279-7.672a14.927,14.927,0,1,1-14.253,9.834Z" transform="translate(-354.043 -254.063)" fill="none" stroke="#3f3d56" stroke-miterlimit="10" stroke-width="1"/>
    <path id="Caminho_407" data-name="Caminho 407" d="M1104.161,614.073a14.927,14.927,0,0,0,13.212-26.556l-1.751,5.9-1.242-7.391a.252.252,0,0,0-.038-.014,14.928,14.928,0,0,0-10.181,28.066Z" transform="translate(-354.603 -278.665)" fill="#57b894"/>
    <path id="Caminho_408" data-name="Caminho 408" d="M1105.161,610.348a14.927,14.927,0,0,0,13.212-26.556l-1.751,5.9-1.242-7.391a.269.269,0,0,0-.038-.014,14.928,14.928,0,1,0-10.181,28.066Z" transform="translate(-354.885 -277.612)" fill="none" stroke="#3f3d56" stroke-miterlimit="10" stroke-width="1"/>
    <path id="Caminho_409" data-name="Caminho 409" d="M1086.29,653.152a14.921,14.921,0,1,0,2.877-11.69l6.651,10.011-9.088-5.313A14.789,14.789,0,0,0,1086.29,653.152Z" transform="translate(-352.268 -292.953)" fill="#57b894"/>
    <path id="Caminho_410" data-name="Caminho 410" d="M1087.14,650.395a14.92,14.92,0,1,0,2.877-11.69l6.651,10.011-9.088-5.313A14.788,14.788,0,0,0,1087.14,650.395Z" transform="translate(-352.508 -292.173)" fill="none" stroke="#3f3d56" stroke-miterlimit="10" stroke-width="1"/>
    <path id="Caminho_411" data-name="Caminho 411" d="M69.515,620.634a9.808,9.808,0,1,0,1.306-18.811l.246,5.048-2.388-4.327a9.771,9.771,0,0,0-5.035,5.525,9.618,9.618,0,0,0-.564,2.653,9.807,9.807,0,0,0,6.436,9.911Z" transform="translate(-63.054 -283.329)" fill="#57b894"/>
    <path id="Caminho_412" data-name="Caminho 412" d="M87.809,675.864c-.843-4.293,2.81-8.1,6.419-10.574s7.825-4.9,9.057-9.1c1.77-6.034-3.5-11.56-7.6-16.326a59.047,59.047,0,0,1-7.787-11.573,15.931,15.931,0,0,1-1.863-5.262c-.324-2.675.536-5.336,1.4-7.887q4.326-12.749,9.25-25.284" transform="translate(-69.53 -280.007)" fill="none" stroke="#3f3d56" stroke-miterlimit="10" stroke-width="1"/>
    <path id="Caminho_413" data-name="Caminho 413" d="M70.078,618.822a9.808,9.808,0,1,0,1.306-18.811l.246,5.048-2.388-4.326a9.771,9.771,0,0,0-5.035,5.525,9.618,9.618,0,0,0-.564,2.653A9.807,9.807,0,0,0,70.078,618.822Z" transform="translate(-63.213 -282.817)" fill="none" stroke="#3f3d56" stroke-miterlimit="10" stroke-width="1"/>
    <path id="Caminho_414" data-name="Caminho 414" d="M86.634,584.877a9.8,9.8,0,0,1,7.06-6.22l.808,4.8,1.5-5.041a9.807,9.807,0,1,1-9.364,6.461Z" transform="translate(-69.554 -276.773)" fill="#57b894"/>
    <path id="Caminho_415" data-name="Caminho 415" d="M87.385,582.461a9.8,9.8,0,0,1,7.06-6.22l.808,4.8,1.5-5.04a9.807,9.807,0,1,1-9.364,6.461Z" transform="translate(-69.766 -276.09)" fill="none" stroke="#3f3d56" stroke-miterlimit="10" stroke-width="1"/>
    <path id="Caminho_416" data-name="Caminho 416" d="M94.563,652.206a9.807,9.807,0,0,0,8.68-17.448l-1.15,3.873-.816-4.856-.025-.009a9.808,9.808,0,1,0-6.689,18.44Z" transform="translate(-70.134 -292.254)" fill="#57b894"/>
    <path id="Caminho_417" data-name="Caminho 417" d="M95.214,649.758a9.807,9.807,0,0,0,8.68-17.448l-1.15,3.873-.816-4.856-.025-.009a9.808,9.808,0,1,0-6.689,18.44Z" transform="translate(-70.318 -291.562)" fill="none" stroke="#3f3d56" stroke-miterlimit="10" stroke-width="1"/>
    <path id="Caminho_418" data-name="Caminho 418" d="M82.817,677.881a9.8,9.8,0,1,0,1.89-7.681l4.37,6.577-5.971-3.491a9.715,9.715,0,0,0-.289,4.594Z" transform="translate(-68.598 -301.641)" fill="#57b894"/>
    <path id="Caminho_419" data-name="Caminho 419" d="M83.38,676.069a9.8,9.8,0,1,0,1.89-7.681l4.37,6.577-5.971-3.491A9.716,9.716,0,0,0,83.38,676.069Z" transform="translate(-68.758 -301.129)" fill="none" stroke="#3f3d56" stroke-miterlimit="10" stroke-width="1"/>
    <ellipse id="Elipse_38" data-name="Elipse 38" cx="12.194" cy="15.78" rx="12.194" ry="15.78" transform="translate(332.784 213.118)" fill="#2f2e41"/>
    <ellipse id="Elipse_39" data-name="Elipse 39" cx="12.194" cy="15.78" rx="12.194" ry="15.78" transform="translate(399.134 213.477)" fill="#2f2e41"/>
    <path id="Caminho_420" data-name="Caminho 420" d="M605.972,537.411c0,7.13-9.956,12.911-22.236,12.911S561.5,544.541,561.5,537.411c0-6.176,7.467-11.34,17.445-12.6a35.949,35.949,0,0,1,4.792-.308,36.363,36.363,0,0,1,7.983.861C600.054,527.218,605.972,531.917,605.972,537.411Z" transform="translate(-203.969 -261.53)" fill="#2f2e41"/>
    <ellipse id="Elipse_40" data-name="Elipse 40" cx="12.194" cy="15.78" rx="12.194" ry="15.78" transform="translate(335.653 209.532)" fill="none" stroke="#3f3d56" stroke-miterlimit="10" stroke-width="1"/>
    <ellipse id="Elipse_41" data-name="Elipse 41" cx="12.194" cy="15.78" rx="12.194" ry="15.78" transform="translate(402.003 209.891)" fill="none" stroke="#3f3d56" stroke-miterlimit="10" stroke-width="1"/>
    <ellipse id="Elipse_42" data-name="Elipse 42" cx="22.236" cy="12.911" rx="22.236" ry="12.911" transform="translate(360.4 259.384)" fill="none" stroke="#3f3d56" stroke-miterlimit="10" stroke-width="1"/>
    <path id="Caminho_421" data-name="Caminho 421" d="M598.628,526.3a3.541,3.541,0,0,1-.947,2.433,3.112,3.112,0,0,1-2.281,1.01h-7.173A3.346,3.346,0,0,1,585,526.3a3.518,3.518,0,0,1,.588-1.966,33.737,33.737,0,0,1,4.792-.329,34.192,34.192,0,0,1,7.983.918A3.633,3.633,0,0,1,598.628,526.3Z" transform="translate(-210.612 -261.389)" fill="#fff"/>
    <circle id="Elipse_43" data-name="Elipse 43" cx="3.586" cy="3.586" r="3.586" transform="translate(344.261 217.422)" fill="#fff"/>
    <circle id="Elipse_44" data-name="Elipse 44" cx="3.586" cy="3.586" r="3.586" transform="translate(410.969 217.422)" fill="#fff"/>
    <circle id="Elipse_45" data-name="Elipse 45" cx="3.586" cy="3.586" r="3.586" transform="translate(414.555 251.135)" fill="#6c63ff" opacity="0.3"/>
    <circle id="Elipse_46" data-name="Elipse 46" cx="3.586" cy="3.586" r="3.586" transform="translate(327.046 251.135)" fill="#6c63ff" opacity="0.3"/>
  </g>
</svg>
