<svg xmlns="http://www.w3.org/2000/svg" width="240" height="55" viewBox="0 0 240 55">
  <g id="Logo_Branca" transform="translate(-826 2)">
    <path id="Exclusão_1" data-name="Exclusão 1" d="M34.493,32.323H2a2,2,0,0,1-2-2V2A2,2,0,0,1,2,0H34.493a2,2,0,0,1,2,2V30.323A2,2,0,0,1,34.493,32.323ZM21.52,3.4a2,2,0,0,0-2,2V27.771a2,2,0,0,0,2,2H31.947a2,2,0,0,0,2-2V5.4a2,2,0,0,0-2-2ZM10.184,17.863a5.954,5.954,0,1,0,5.94,5.953A5.954,5.954,0,0,0,10.184,17.863ZM2.546,3.4V15.311H16.973V3.4Z" transform="translate(892.493 41.323) rotate(180)" fill="#fff"/>
    <text id="Mands" transform="translate(905.5 38)" fill="#f5f5f5" font-size="47" font-family="FreestyleScript-Regular, Freestyle Script"><tspan x="0" y="0">Mands</tspan></text>
  </g>
</svg>
