<svg xmlns="http://www.w3.org/2000/svg" width="233.281" height="102" viewBox="0 0 233.281 102">
  <g id="Logo" transform="translate(-856.001 2)">
    <path id="Exclusão_1" data-name="Exclusão 1" d="M67.283,61.366H2a2,2,0,0,1-2-2V2A2,2,0,0,1,2,0H67.283a2,2,0,0,1,2,2V59.366A2,2,0,0,1,67.283,61.366ZM39.058,6.459a2,2,0,0,0-2,2V54.521a2,2,0,0,0,2,2H62.449a2,2,0,0,0,2-2V8.46a2,2,0,0,0-2-2ZM19.335,33.913a11.3,11.3,0,1,0,11.279,11.3A11.3,11.3,0,0,0,19.335,33.913ZM4.834,6.459V29.068H32.224V6.459Z" transform="translate(925.284 80.25) rotate(180)" fill="#8d297e"/>
    <text id="Mands" transform="translate(949.282 72)" fill="#8d297e" font-size="87" font-family="FreestyleScript-Regular, Freestyle Script"><tspan x="0" y="0">Mands</tspan></text>
  </g>
</svg>
