<svg xmlns="http://www.w3.org/2000/svg" xmlns:xlink="http://www.w3.org/1999/xlink" width="715.437" height="585.913" viewBox="0 0 715.437 585.913">
  <defs>
    <linearGradient id="linear-gradient" x1="0.5" y1="1" x2="0.5" gradientUnits="objectBoundingBox">
      <stop offset="0" stop-color="gray" stop-opacity="0.251"/>
      <stop offset="0.54" stop-color="gray" stop-opacity="0.122"/>
      <stop offset="1" stop-color="gray" stop-opacity="0.102"/>
    </linearGradient>
  </defs>
  <g id="Illustration" transform="translate(-1099 -184.5)">
    <g id="Illustration-2" data-name="Illustration" transform="translate(1099.007 241.02)">
      <g id="Grupo_22" data-name="Grupo 22" transform="translate(545.757 311.266)" opacity="0.1">
        <path id="Caminho_105" data-name="Caminho 105" d="M915.454,619.182s-51.074-6.632-12.984,76.03c0,0,34.712-14.875,36.094-48.426a26.7,26.7,0,0,0-22.387-27.5Z" transform="translate(-888.357 -555.391)" fill="#6c63ff"/>
        <path id="Caminho_106" data-name="Caminho 106" d="M923.754,619.06s11.562,46.092-13.694,76.161" transform="translate(-895.907 -555.393)" fill="none" stroke="#535461" stroke-miterlimit="10" stroke-width="1"/>
        <path id="Caminho_107" data-name="Caminho 107" d="M909,680.509s18.39-45.322,52.73-62.133A74.113,74.113,0,0,0,995.385,585.7a124.629,124.629,0,0,0,8.432-21.174" transform="translate(-895.539 -536.423)" fill="none" stroke="#535461" stroke-miterlimit="10" stroke-width="2"/>
        <path id="Caminho_108" data-name="Caminho 108" d="M1075.7,538.821c-3.58,4.5-22.107,11.086-22.107,11.086s2.23-19.563,5.81-24.03a10.434,10.434,0,1,1,16.3,12.964Z" transform="translate(-945.839 -521.428)" fill="#6c63ff"/>
        <path id="Caminho_109" data-name="Caminho 109" d="M1064.632,591.8c-5.452,1.832-24.572-2.726-24.572-2.726s12.488-15.181,17.94-17.014a10.434,10.434,0,1,1,6.632,19.74Z" transform="translate(-941.132 -538.773)" fill="#6c63ff"/>
        <path id="Caminho_110" data-name="Caminho 110" d="M1014.3,656.41c-5.628-1.167-19.837-14.757-19.837-14.757s18.442-6.8,24.076-5.634A10.434,10.434,0,0,1,1014.3,656.4Z" transform="translate(-925.269 -561.246)" fill="#6c63ff"/>
        <path id="Caminho_111" data-name="Caminho 111" d="M962.118,696.134c-5.745-.2-22.048-11.19-22.048-11.19s17.033-9.834,22.778-9.625a10.434,10.434,0,0,1-.73,20.809Z" transform="translate(-906.347 -574.963)" fill="#6c63ff"/>
        <path id="Caminho_112" data-name="Caminho 112" d="M1012.656,572.364c.737,5.706,13.186,20.913,13.186,20.913s8.2-17.868,7.467-23.574a10.434,10.434,0,1,0-20.652,2.661Z" transform="translate(-931.531 -534.82)" fill="#6c63ff"/>
        <path id="Caminho_113" data-name="Caminho 113" d="M953.028,618.226c2.406,5.217,18.84,16.01,18.84,16.01s2.478-19.5.072-24.722a10.434,10.434,0,1,0-18.911,8.719Z" transform="translate(-910.417 -549.747)" fill="#6c63ff"/>
        <path id="Caminho_114" data-name="Caminho 114" d="M902.323,673.019c1.487,5.556,15.866,18.963,15.866,18.963s5.739-18.8,4.245-24.357a10.434,10.434,0,1,0-20.111,5.393Z" transform="translate(-893.022 -569.364)" fill="#6c63ff"/>
        <path id="Caminho_115" data-name="Caminho 115" d="M1075.7,538.821c-3.58,4.5-22.107,11.086-22.107,11.086s2.23-19.563,5.81-24.03a10.434,10.434,0,1,1,16.3,12.964Z" transform="translate(-945.839 -521.428)" opacity="0.25"/>
        <path id="Caminho_116" data-name="Caminho 116" d="M1064.632,591.8c-5.452,1.832-24.572-2.726-24.572-2.726s12.488-15.181,17.94-17.014a10.434,10.434,0,1,1,6.632,19.74Z" transform="translate(-941.132 -538.773)" opacity="0.25"/>
        <path id="Caminho_117" data-name="Caminho 117" d="M1014.3,656.41c-5.628-1.167-19.837-14.757-19.837-14.757s18.442-6.8,24.076-5.634A10.434,10.434,0,0,1,1014.3,656.4Z" transform="translate(-925.269 -561.246)" opacity="0.25"/>
        <path id="Caminho_118" data-name="Caminho 118" d="M962.118,696.134c-5.745-.2-22.048-11.19-22.048-11.19s17.033-9.834,22.778-9.625a10.434,10.434,0,0,1-.73,20.809Z" transform="translate(-906.347 -574.963)" opacity="0.25"/>
        <path id="Caminho_119" data-name="Caminho 119" d="M1012.656,572.364c.737,5.706,13.186,20.913,13.186,20.913s8.2-17.868,7.467-23.574a10.434,10.434,0,1,0-20.652,2.661Z" transform="translate(-931.531 -534.82)" opacity="0.25"/>
        <path id="Caminho_120" data-name="Caminho 120" d="M953.028,618.226c2.406,5.217,18.84,16.01,18.84,16.01s2.478-19.5.072-24.722a10.434,10.434,0,1,0-18.911,8.719Z" transform="translate(-910.417 -549.747)" opacity="0.25"/>
        <path id="Caminho_121" data-name="Caminho 121" d="M902.323,673.019c1.487,5.556,15.866,18.963,15.866,18.963s5.739-18.8,4.245-24.357a10.434,10.434,0,1,0-20.111,5.393Z" transform="translate(-893.022 -569.364)" opacity="0.25"/>
        <path id="Caminho_122" data-name="Caminho 122" d="M946.56,712.125s18.39-45.322,52.73-62.134a74.113,74.113,0,0,0,33.636-32.677,124.627,124.627,0,0,0,8.432-21.174" transform="translate(-908.605 -547.419)" fill="none" stroke="#535461" stroke-miterlimit="10" stroke-width="2"/>
        <path id="Caminho_123" data-name="Caminho 123" d="M1113.207,570.951c-3.58,4.5-22.107,11.086-22.107,11.086s2.23-19.563,5.81-24.03a10.434,10.434,0,0,1,16.3,12.964Z" transform="translate(-958.888 -532.951)" fill="#6c63ff"/>
        <path id="Caminho_124" data-name="Caminho 124" d="M1102.162,623.632c-5.452,1.832-24.572-2.726-24.572-2.726s12.488-15.181,17.94-17.014a10.434,10.434,0,0,1,6.632,19.74Z" transform="translate(-954.189 -549.995)" fill="#6c63ff"/>
        <path id="Caminho_125" data-name="Caminho 125" d="M1051.827,688.05c-5.628-1.167-19.837-14.757-19.837-14.757s18.442-6.8,24.076-5.634a10.434,10.434,0,0,1-4.239,20.385Z" transform="translate(-938.325 -572.253)" fill="#6c63ff"/>
        <path id="Caminho_126" data-name="Caminho 126" d="M999.638,727.727c-5.745-.2-22.048-11.19-22.048-11.19s17.033-9.821,22.778-9.619a10.434,10.434,0,0,1-.73,20.809Z" transform="translate(-919.4 -585.957)" fill="#6c63ff"/>
        <path id="Caminho_127" data-name="Caminho 127" d="M1050.176,604c.737,5.706,13.186,20.913,13.186,20.913s8.2-17.868,7.467-23.574A10.434,10.434,0,1,0,1050.176,604Z" transform="translate(-944.584 -545.828)" fill="#6c63ff"/>
        <path id="Caminho_128" data-name="Caminho 128" d="M990.857,650.436c2.406,5.217,18.84,16.009,18.84,16.009s2.478-19.5.072-24.722a10.434,10.434,0,0,0-18.911,8.719Z" transform="translate(-923.772 -561.376)" fill="#6c63ff"/>
        <path id="Caminho_129" data-name="Caminho 129" d="M940.043,705.351c1.487,5.556,15.866,18.963,15.866,18.963s5.739-18.8,4.245-24.356a10.434,10.434,0,0,0-20.111,5.393Z" transform="translate(-906.268 -581.076)" fill="#6c63ff"/>
      </g>
      <path id="Caminho_130" data-name="Caminho 130" d="M63.3,474.07c11.321,48.387,35.286,90.214,73.161,110.488,78.71,42.133,256.222,20.4,388.706-4.565a303.371,303.371,0,0,0,172.5-98.6Z" transform="translate(-55.575 -193.687)" fill="#6c63ff" opacity="0.1"/>
      <path id="Caminho_131" data-name="Caminho 131" d="M767.792,96.725H695.1a6.283,6.283,0,1,1,0-12.566h12.566a6.283,6.283,0,1,1,0-12.566h-8.973a6.283,6.283,0,0,1,0-12.566h37.94a100.394,100.394,0,0,0-29.593-8.158c-103.451-13.29-140.387-4.5-153.417,4.565A144.875,144.875,0,0,1,500.451,78.74c-63.836,13.153-183.205,29-291.4-5.086C155.28,56.7,115.312,85.339,91.36,133.179H780.41c-.9-13.9-3.593-26.737-8.536-37.979A6.247,6.247,0,0,1,767.792,96.725Z" transform="translate(-65.336 -44.1)" fill="#6c63ff" opacity="0.1"/>
      <path id="Caminho_132" data-name="Caminho 132" d="M53.006,319.2a320.226,320.226,0,0,0,2.824,84.423l638.212,23.339a299.974,299.974,0,0,0,44.344-67.624Zm252.421,60.223H292.86a6.283,6.283,0,1,1,0,12.566H220.169a6.283,6.283,0,0,1,0-12.566h12.566a6.283,6.283,0,1,1,0-12.566h-8.973a6.283,6.283,0,0,1,0-12.566h72.691a6.283,6.283,0,1,1,0,12.566h8.973a6.283,6.283,0,1,1,0,12.566Z" transform="translate(-51.45 -139.81)" fill="#6c63ff" opacity="0.1"/>
      <path id="Caminho_133" data-name="Caminho 133" d="M767.446,181.38,70.668,198.335C62.2,220.122,56.608,244.752,54,270.283H755.238a297.662,297.662,0,0,0,10.127-45.863A217.307,217.307,0,0,0,767.446,181.38ZM195.457,236.921H182.89a6.283,6.283,0,0,1,0,12.566H110.2a6.283,6.283,0,0,1,0-12.566h12.566a6.283,6.283,0,1,1,0-12.566h-8.973a6.283,6.283,0,1,1,0-12.566h72.691a6.283,6.283,0,1,1,0,12.566h8.973a6.283,6.283,0,1,1,0,12.566Z" transform="translate(-52.339 -91.865)" fill="#6c63ff" opacity="0.1"/>
      <path id="Caminho_134" data-name="Caminho 134" d="M713.916,581.451s-29.058-159.377-84.468-185.24C582.5,374.281,531.722,359.5,517.284,355.487a62.349,62.349,0,0,0-7.441-9.71c-19.733-20.6-31.588-20.216-33.506-19.961a100.321,100.321,0,0,1-1.956-12.39c-.059-.652-.117-1.259-.169-1.9l.169-.085q-.176-1.849-.313-3.815A98.206,98.206,0,0,0,496.1,291.573c.085.28.157.561.248.848q21.331-18.031,41.781-37.04c3.913-3.658,8.021-7.63,9.351-12.788a18.767,18.767,0,0,0,.489-5.426c.176-3.913-.75-7.91-.906-11.875a13.593,13.593,0,0,1,.156-1.878c.913-6.489,5.426-11.816,9.13-17.261a81.4,81.4,0,0,0,13.844-46.6,78.9,78.9,0,0,0-3.261-23.476c-2.889-9.664-8.9-19.818-18.911-21.931-3.874-.815-7.9-.306-11.849-.561-16.362-1.043-28.608-14.347-41.657-24.1a109.953,109.953,0,0,0-54.5-21.155c-6.163-.652-12.527-.7-18.39,1.259-13.166,4.382-21.161,17.914-33.845,23.476-9.377,4.134-20.216,3.463-30,6.567-14.562,4.63-26.919,19.563-27.245,34.908v1.989c-.163,7.754,2.608,15.651,2.83,23.587q0,1.076.033,2.159c-.072,8.569-1.1,17.164-4.219,25.217-1.682,4.337-3.848,9.358-3.5,13.694a9.166,9.166,0,0,0,2.165,7.173l3.15-2.778a95.244,95.244,0,0,0,32.769,90.54q.183,2.928.352,6.273c.5,9.664.887,21.787.776,35l-30.754,28.269-79.062,35.866S182.775,416.8,198.348,518.385l7.434,63.073H271.8l-.15.333h97.98l.059-.333H602.8l-.046.333h9.13v-.333Zm-237-254.018a67.764,67.764,0,0,1,4.7,12.912,52.9,52.9,0,0,1-5.067-13.616l.1.176ZM364.872,340.475q0,1.865-.065,3.763l-.157.222a31.953,31.953,0,0,1,.222-4.017Z" transform="translate(-101.792 -52.397)" fill="url(#linear-gradient)"/>
      <path id="Caminho_135" data-name="Caminho 135" d="M584.165,446.161,571.123,570.714l-69.776,22.172s-90.644-16.955-67.168-65.864c16.7-34.79,16.238-96.963,14.581-129.96-.652-13.394-1.539-21.983-1.539-21.983s118.685-103.686,108.9-10.434c-1.891,18.057-2,32.175-.952,43.209C559.574,453.79,584.165,446.161,584.165,446.161Z" transform="translate(-183.247 -142.086)" fill="#fdc2cc"/>
      <path id="Caminho_136" data-name="Caminho 136" d="M584.165,446.161,571.123,570.714l-69.776,22.172s-90.644-16.955-67.168-65.864c16.7-34.79,16.238-96.963,14.581-129.96-.652-13.394-1.539-21.983-1.539-21.983s118.685-103.686,108.9-10.434c-1.891,18.057-2,32.175-.952,43.209C559.574,453.79,584.165,446.161,584.165,446.161Z" transform="translate(-183.247 -142.086)" opacity="0.03"/>
      <path id="Caminho_137" data-name="Caminho 137" d="M565.153,361.646c-1.891,18.057-2,32.175-.952,43.209a94.6,94.6,0,0,1-106.412-10.792c-.652-13.395-1.539-21.983-1.539-21.983S574.935,268.394,565.153,361.646Z" transform="translate(-192.276 -141.043)" opacity="0.1"/>
      <circle id="Elipse_24" data-name="Elipse 24" cx="94.557" cy="94.557" r="94.557" transform="translate(232.02 82.362)" fill="#fdc2cc"/>
      <circle id="Elipse_25" data-name="Elipse 25" cx="94.557" cy="94.557" r="94.557" transform="translate(232.02 82.362)" opacity="0.03"/>
      <path id="Caminho_138" data-name="Caminho 138" d="M709.686,721.489H219.3l-7.173-61.951c-15-99.774,54.778-114.772,54.778-114.772l76.3-35.214,30.323-28.367c-9.782,37.17,64.233,114.446,64.233,114.446h0a17.52,17.52,0,0,0,1.35-1.4c2-2.178,6.762-7.63,17.927-21.154,3.991-4.845,8.81-10.721,14.614-17.855,27.91-34.3,13.59-74.83,9.312-83.21l-.267-.522c-.163-.3-.287-.541-.385-.711a1.058,1.058,0,0,0-.1-.176,1.041,1.041,0,0,1-.072-.13L516,498.511s1.376.365,3.913,1.082c13.955,3.913,62.981,18.461,108.251,40C681.645,564.981,709.686,721.489,709.686,721.489Z" transform="translate(-106.613 -192.435)" fill="#8d297e"/>
      <g id="Grupo_25" data-name="Grupo 25">
        <path id="Caminho_139" data-name="Caminho 139" d="M658.333,572.1c-5.869-5.869-45.648-13.042-45.648-13.042,1.3,15.651-46.952,39.779-46.952,39.779l3.587,122.6H546.183L542.27,611.231l11.086-15.651h0l1.35-1.4a215.191,215.191,0,0,0,17.927-21.155c3.991-4.845,8.81-10.721,14.614-17.855,27.91-34.3,13.59-74.83,9.312-83.21l-.267-.522c-.157-.306-.28-.541-.385-.711a1.064,1.064,0,0,0-.1-.176,1.03,1.03,0,0,1-.072-.13h0s11.738-2.609,32.606,19.563a61.134,61.134,0,0,1,7.173,9.56C652.471,526.749,663.5,577.275,658.333,572.1Z" transform="translate(-222.201 -192.384)" fill="#8d297e"/>
        <path id="Caminho_140" data-name="Caminho 140" d="M658.333,572.1c-5.869-5.869-45.648-13.042-45.648-13.042,1.3,15.651-46.952,39.779-46.952,39.779l3.587,122.6H546.183L542.27,611.231l11.086-15.651h0l1.35-1.4a215.191,215.191,0,0,0,17.927-21.155c3.991-4.845,8.81-10.721,14.614-17.855,27.91-34.3,13.59-74.83,9.312-83.21l-.267-.522c-.157-.306-.28-.541-.385-.711a1.064,1.064,0,0,0-.1-.176,1.03,1.03,0,0,1-.072-.13h0s11.738-2.609,32.606,19.563a61.134,61.134,0,0,1,7.173,9.56C652.471,526.749,663.5,577.275,658.333,572.1Z" transform="translate(-222.201 -192.384)" opacity="0.1"/>
      </g>
      <g id="Grupo_26" data-name="Grupo 26" transform="translate(225.069 277.941)">
        <path id="Caminho_139-2" data-name="Caminho 139" d="M543.553,572.1c5.869-5.869,45.648-13.042,45.648-13.042-1.3,15.651,46.952,39.779,46.952,39.779l-3.587,122.6H655.7l3.913-110.207L648.53,595.58h0l-1.35-1.4a215.191,215.191,0,0,1-17.927-21.155c-3.991-4.845-8.81-10.721-14.614-17.855-24.226-29.773-44.083-30.37-38.766-44.681.7-1.889-1.386,2.339-.822,1.233l.267-.522c.157-.306.28-.541.385-.711a1.064,1.064,0,0,1,.1-.176,1.03,1.03,0,0,0,.072-.13h0s18.538-42.37-2.33-20.2a61.134,61.134,0,0,0-7.173,9.56C549.416,526.749,538.382,577.275,543.553,572.1Z" transform="translate(-542.27 -470.325)" fill="#8d297e"/>
        <path id="Caminho_140-2" data-name="Caminho 140" d="M543.553,572.1c5.869-5.869,45.648-13.042,45.648-13.042-1.3,15.651,46.952,39.779,46.952,39.779l-3.587,122.6H655.7l3.913-110.207L648.53,595.58h0l-1.35-1.4a215.191,215.191,0,0,1-17.927-21.155c-3.991-4.845-8.81-10.721-14.614-17.855-25.51-31.351-35.963-43.763-38.727-48.9l.267-.522c.157-.306.28-.541.385-.711a1.064,1.064,0,0,1,.1-.176,1.03,1.03,0,0,0,.072-.13s17.677-36.921-3.191-14.749a61.134,61.134,0,0,0-7.173,9.56C549.416,526.749,538.382,577.275,543.553,572.1Z" transform="translate(-542.27 -470.325)" opacity="0.1"/>
      </g>
      <path id="Caminho_141" data-name="Caminho 141" d="M313.25,703.4S343.9,766,345.53,802.848" transform="translate(-142.529 -273.468)" opacity="0.1"/>
      <path id="Caminho_142" data-name="Caminho 142" d="M769.1,714.31l-8.8,63.581h8.8Z" transform="translate(-264.5 -248.505)" opacity="0.1"/>
      <path id="Caminho_143" data-name="Caminho 143" d="M323.75,707.471l48.583-110.533s13.694-26.085,16.955-52.169S410.155,477.6,410.155,477.6s43.692-55.43,63.907-47.6-17.607,37.171-17.607,37.171,55.43,21.52,17.607,85.427-38.475,52.169-38.475,52.169L417,707.471Z" transform="translate(-146.182 -178.091)" opacity="0.1"/>
      <path id="Caminho_144" data-name="Caminho 144" d="M321.75,707.464,370.333,596.93s13.694-26.085,16.955-52.169c2.074-16.583,9.945-39.231,15.4-53.532A82.076,82.076,0,0,1,418.159,465.8c14.125-15.807,39.779-41.3,53.9-35.821,20.216,7.825-17.607,37.171-17.607,37.171s55.43,21.52,17.607,85.427-38.475,52.169-38.475,52.169L415,707.451Z" transform="translate(-145.486 -178.084)" fill="#fdc2cc"/>
      <circle id="Elipse_26" data-name="Elipse 26" cx="1.956" cy="1.956" r="1.956" transform="translate(353.639 121.815)" fill="#fff" opacity="0.15"/>
      <circle id="Elipse_27" data-name="Elipse 27" cx="1.956" cy="1.956" r="1.956" transform="translate(344.51 125.727)" fill="#fff" opacity="0.15"/>
      <path id="Caminho_145" data-name="Caminho 145" d="M432.688,116.061c9.436-3.052,19.909-2.393,28.96-6.449,12.24-5.491,19.955-18.781,32.658-23.085,5.66-1.917,11.8-1.845,17.744-1.232a105.036,105.036,0,0,1,52.6,20.783c12.592,9.58,24.409,22.641,40.2,23.665,3.815.248,7.695-.254,11.432.548,9.677,2.074,15.475,12.045,18.259,21.52a81.032,81.032,0,0,1-10.212,66.907c-3.573,5.347-7.93,10.584-8.81,16.955-.861,6.247,1.8,12.723.248,18.84-1.3,5.067-5.217,8.967-9.025,12.56q-19.726,18.657-40.32,36.355c-7.134-22.668,3.332-47.076,1.7-70.781-.652-9.234-3.913-19.316-12.058-23.672-7.623-4.069-17.366-1.956-25.08-5.869-8.608-4.337-12.142-14.607-18.651-21.715C501.245,169.261,482,167.7,466.5,173.174s-28.171,16.746-40.431,27.734L403.786,220.9c-4.35-4.9-1.05-12.429,1.3-18.559,3.508-9.188,4.278-19.094,4.043-28.85-.189-7.825-2.889-15.553-2.732-23.17C406.714,135.292,418.635,120.607,432.688,116.061Z" transform="translate(-173.286 -58.304)" opacity="0.1"/>
      <path id="Caminho_146" data-name="Caminho 146" d="M432.688,113.061c9.436-3.052,19.909-2.393,28.96-6.449,12.24-5.491,19.955-18.781,32.658-23.085,5.66-1.917,11.8-1.845,17.744-1.232a105.036,105.036,0,0,1,52.6,20.783c12.592,9.58,24.409,22.641,40.2,23.665,3.815.248,7.695-.254,11.432.548,9.677,2.074,15.475,12.045,18.259,21.52a81.032,81.032,0,0,1-10.212,66.907c-3.573,5.347-7.93,10.584-8.81,16.955-.861,6.247,1.8,12.723.248,18.84-1.3,5.067-5.217,8.967-9.025,12.56q-19.726,18.657-40.32,36.355c-7.134-22.667,3.332-47.076,1.7-70.781-.652-9.234-3.913-19.316-12.058-23.672-7.623-4.069-17.366-1.956-25.08-5.869-8.608-4.337-12.142-14.607-18.651-21.715C501.245,166.261,482,164.7,466.5,170.174s-28.171,16.746-40.431,27.734L403.786,217.9c-4.35-4.9-1.05-12.429,1.3-18.559,3.508-9.188,4.278-19.094,4.043-28.85-.189-7.825-2.889-15.553-2.732-23.17C406.714,132.292,418.635,117.607,432.688,113.061Z" transform="translate(-173.286 -57.26)" fill="#865a61"/>
    </g>
    <g id="Thought">
      <g id="Icons" transform="translate(1482.2 181)">
        <g id="XMLID_1072_" transform="translate(0.8 4)">
          <g id="XMLID_212_">
            <circle id="XMLID_237_" cx="6.231" cy="6.231" r="6.231" transform="translate(0 146.429)" fill="#fff"/>
            <g id="XMLID_233_" transform="translate(24.924 123.73)">
              <path id="XMLID_236_" d="M35.43,42.037A10.353,10.353,0,0,0,25.193,31.8c-3.561,0-6.231,1.78-8.456,4.006a10.237,10.237,0,1,0,0,20.473c1.78,2.67,4.9,4.006,8.456,4.006A10.353,10.353,0,0,0,35.43,50.048a10.629,10.629,0,0,0-.89-4.006A10.629,10.629,0,0,0,35.43,42.037Z" transform="translate(-6.055 -31.8)" fill="#fff"/>
              <path id="XMLID_235_" d="M21.532,43.892h0A15.024,15.024,0,0,1,7.29,34.1a13.167,13.167,0,0,0-.89,4.451A10.353,10.353,0,0,0,16.637,48.787c1.78,2.67,4.9,4.006,8.456,4.006a10.737,10.737,0,0,0,7.566-3.116A13.306,13.306,0,0,1,21.532,43.892Z" transform="translate(-6.4 -23.863)" fill="#f0f0f0"/>
              <path id="XMLID_234_" d="M35.43,42.037A10.353,10.353,0,0,0,25.193,31.8c-3.561,0-6.231,1.78-8.456,4.006a10.237,10.237,0,1,0,0,20.473c1.78,2.67,4.9,4.006,8.456,4.006A10.353,10.353,0,0,0,35.43,50.048a10.629,10.629,0,0,0-.89-4.006A10.629,10.629,0,0,0,35.43,42.037Z" transform="translate(-6.055 -31.8)" fill="none"/>
            </g>
            <g id="XMLID_213_" transform="translate(18.693)">
              <path id="XMLID_230_" d="M192.821,68.981a18.62,18.62,0,0,0-14.687-18.248c0-.89.445-1.78.445-2.67a18.806,18.806,0,0,0-18.693-18.693A21.429,21.429,0,0,0,149.2,32.485V31.149a18.806,18.806,0,0,0-18.693-18.693A20.052,20.052,0,0,0,117.158,17.8a18.966,18.966,0,0,0-36.5,0A18.116,18.116,0,0,0,67.31,12.456,18.806,18.806,0,0,0,48.617,31.149v1.335a17.743,17.743,0,0,0-10.682-3.116A18.806,18.806,0,0,0,19.242,48.062a5.645,5.645,0,0,0,.445,2.67A18.62,18.62,0,0,0,5,68.981c0,9.347,6.676,16.913,16.023,18.693a17.859,17.859,0,0,0-1.335,6.676,18.806,18.806,0,0,0,18.693,18.693,21.429,21.429,0,0,0,10.682-3.116v1.335A18.641,18.641,0,0,0,82,123.28c3.116,6.231,9.347,11.127,16.913,11.127a18.07,18.07,0,0,0,16.913-11.127,18.641,18.641,0,0,0,32.935-12.017v-1.335a17.743,17.743,0,0,0,10.682,3.116A18.806,18.806,0,0,0,178.134,94.35a17.858,17.858,0,0,0-1.335-6.676,18.722,18.722,0,0,0,16.023-18.693Z" transform="translate(-5 -4)" fill="#fff"/>
              <path id="XMLID_216_" d="M182.584,19.761a18.451,18.451,0,0,1,1.335,7.121A19.945,19.945,0,0,1,163.891,46.91a19.475,19.475,0,0,1-11.127-3.561v1.335a19.945,19.945,0,0,1-20.028,20.028A19.013,19.013,0,0,1,117.6,57.592,20.385,20.385,0,0,1,99.356,69.164,20.676,20.676,0,0,1,80.662,57.147,19.014,19.014,0,0,1,65.53,64.268,19.945,19.945,0,0,1,45.5,44.24V42.9a19.475,19.475,0,0,1-11.127,3.561A19.945,19.945,0,0,1,14.347,26.437a18.451,18.451,0,0,1,1.335-7.121A16.157,16.157,0,0,1,8.116,16.2,19.685,19.685,0,0,0,5,26.882c0,9.347,6.676,16.913,16.023,18.693a17.859,17.859,0,0,0-1.335,6.676A18.806,18.806,0,0,0,38.381,70.944a21.429,21.429,0,0,0,10.682-3.116v1.335A18.641,18.641,0,0,0,82,81.181c3.116,6.231,9.347,11.127,16.913,11.127a18.07,18.07,0,0,0,16.913-11.127,18.641,18.641,0,0,0,32.935-12.017V67.829a17.743,17.743,0,0,0,10.682,3.116,18.806,18.806,0,0,0,18.693-18.693,17.859,17.859,0,0,0-1.335-6.676,19.121,19.121,0,0,0,16.023-18.693,21.167,21.167,0,0,0-3.116-10.237A20.449,20.449,0,0,1,182.584,19.761Z" transform="translate(-5 38.099)" fill="#f0f0f0"/>
              <path id="XMLID_214_" d="M192.821,68.981a18.62,18.62,0,0,0-14.687-18.248c0-.89.445-1.78.445-2.67a18.806,18.806,0,0,0-18.693-18.693A21.429,21.429,0,0,0,149.2,32.485V31.149a18.806,18.806,0,0,0-18.693-18.693A20.052,20.052,0,0,0,117.158,17.8a18.966,18.966,0,0,0-36.5,0A18.116,18.116,0,0,0,67.31,12.456,18.806,18.806,0,0,0,48.617,31.149v1.335a17.743,17.743,0,0,0-10.682-3.116A18.806,18.806,0,0,0,19.242,48.062a5.645,5.645,0,0,0,.445,2.67A18.62,18.62,0,0,0,5,68.981c0,9.347,6.676,16.913,16.023,18.693a17.859,17.859,0,0,0-1.335,6.676,18.806,18.806,0,0,0,18.693,18.693,21.429,21.429,0,0,0,10.682-3.116v1.335A18.641,18.641,0,0,0,82,123.28c3.116,6.231,9.347,11.127,16.913,11.127a18.07,18.07,0,0,0,16.913-11.127,18.641,18.641,0,0,0,32.935-12.017v-1.335a17.743,17.743,0,0,0,10.682,3.116A18.806,18.806,0,0,0,178.134,94.35a17.858,17.858,0,0,0-1.335-6.676,18.722,18.722,0,0,0,16.023-18.693Z" transform="translate(-5 -4)" fill="none" stroke="#c4c4c4" stroke-linecap="round" stroke-linejoin="round" stroke-miterlimit="10" stroke-width="1"/>
            </g>
          </g>
        </g>
      </g>
      <g id="Grupo_24" data-name="Grupo 24" transform="translate(589.223 -764.89) rotate(8)">
        <g id="Layer_2" data-name="Layer 2" transform="translate(1123.846 855.33)">
          <g id="menu-arrow" transform="translate(0 0)">
            <rect id="Retângulo_46" data-name="Retângulo 46" width="26.539" height="26.539" transform="translate(26.539 26.539) rotate(180)" fill="#8d297e" opacity="0"/>
            <path id="Caminho_147" data-name="Caminho 147" d="M18.245,9.623A5.623,5.623,0,0,0,7,9.623a1.125,1.125,0,0,0,2.249,0A3.374,3.374,0,1,1,12.623,13,1.125,1.125,0,0,0,11.5,14.121V16.37a1.125,1.125,0,1,0,2.249,0V15.133A5.623,5.623,0,0,0,18.245,9.623Z" transform="translate(0.464 0.548)" fill="#8d297e"/>
            <circle id="Elipse_28" data-name="Elipse 28" cx="1.264" cy="1.264" r="1.264" transform="translate(11.374 20.22)" fill="#8d297e"/>
          </g>
        </g>
        <g id="Grupo_23" data-name="Grupo 23" transform="translate(1115 825)">
          <path id="Caminho_148" data-name="Caminho 148" d="M53.655,30.234h-4.58l.076-6.4c0-8.544-6.547-15.5-14.729-15.5h-.11c-8.243,0-15.579,7.241-15.579,15.5l-.076,6.4H13.4a1.884,1.884,0,0,0-1.9,1.789V53.629c0,7.407,3.565,8.812,9.948,8.812H47.393c7.358,0,7.945-2.416,7.945-8.812V32.023A1.7,1.7,0,0,0,53.655,30.234Zm-31.343-6.4a12.312,12.312,0,0,1,12-11.918h.11c6.1,0,11.15,5.458,11.15,11.918l-.076,6.4H22.236l.076-6.4ZM47.393,58.863H21.448c-5.443,0-6.369-.685-6.369-5.234V33.813H51.759V53.629C51.759,58.863,51.866,58.863,47.393,58.863Z" transform="translate(-11.5 -2.5)" fill="#8d297e"/>
        </g>
      </g>
    </g>
  </g>
</svg>
