<svg xmlns="http://www.w3.org/2000/svg" width="43" height="52.807" viewBox="0 0 43 52.807">
  <g id="Grupo_18" data-name="Grupo 18" transform="translate(-1.486)">
    <path id="Caminho_35" data-name="Caminho 35" d="M36.653,13.581c-.064-5.867,5.456-8.695,5.705-8.829C39.259.759,34.423.213,32.7.149,28.589-.214,24.677,2.278,22.59,2.278S17.285.2,13.878.263A13.262,13.262,0,0,0,2.95,6.077C-1.7,13.177,1.76,23.693,6.3,29.454c2.215,2.813,4.863,5.986,8.336,5.871,3.349-.115,4.61-1.9,8.65-1.9s5.178,1.9,8.721,1.839c3.594-.057,5.879-2.873,8.081-5.7a24.238,24.238,0,0,0,3.654-6.6c-.077-.025-7.015-2.365-7.088-9.385h0Z" transform="translate(0.745 17.479)" fill-rule="evenodd"/>
    <path id="Caminho_36" data-name="Caminho 36" d="M11.027,11.66A16.079,16.079,0,0,0,14.82,0,16.358,16.358,0,0,0,4.067,5.533C1.7,8.268-.366,12.635.2,16.824c4.1.318,8.28-2.078,10.832-5.164Z" transform="translate(20.042)" fill-rule="evenodd"/>
  </g>
</svg>
